<?xml version="1.0" encoding="UTF-8"?>
<svg id="Layer_1" data-name="Layer 1" xmlns="http://www.w3.org/2000/svg" viewBox="0 0 93.32 58.05">
  <path d="M52.44,39.07H0V18.98H52.45C46.34,12.61,40.37,6.37,34.32,.05c.3-.02,.5-.05,.69-.05,10.16,0,20.33,0,30.49,.01,.31,0,.72,.14,.93,.36,8.94,9.48,17.86,18.98,26.78,28.48,.03,.03,.06,.08,.11,.15-.07,.1-.15,.22-.24,.31-8.82,9.39-17.65,18.78-26.46,28.18-.35,.38-.7,.55-1.23,.55-10.07-.02-20.13-.01-30.2-.01-.24,0-.47,0-.91,0,6.09-6.36,12.06-12.59,18.17-18.97Z"/>
</svg>