<?xml version="1.0" encoding="UTF-8"?>
<svg id="Layer_1" data-name="Layer 1" xmlns="http://www.w3.org/2000/svg" viewBox="0 0 58.05 93.32">
  <path d="M39.07,40.88v52.44H18.98V40.86C12.61,46.97,6.37,52.94,.05,59c-.02-.3-.05-.5-.05-.69C0,48.14,0,37.98,.02,27.82c0-.31,.14-.72,.36-.93C9.86,17.95,19.36,9.03,28.86,.11c.03-.03,.08-.06,.15-.11,.1,.07,.22,.15,.31,.24,9.39,8.82,18.78,17.65,28.18,26.46,.38,.35,.55,.7,.55,1.23-.02,10.07-.01,20.13-.01,30.2,0,.24,0,.47,0,.91-6.36-6.09-12.59-12.06-18.97-18.17Z"/>
</svg>