<?xml version="1.0" encoding="UTF-8"?>
<svg id="Layer_1" data-name="Layer 1" xmlns="http://www.w3.org/2000/svg" viewBox="0 0 201.6 481.6">
  <path d="M0,190.4v100.8c0,55.44,45.36,100.8,100.8,100.8s100.8-45.36,100.8-100.8v-100.8c0-55.44-45.36-100.8-100.8-100.8S0,134.96,0,190.4H0ZM100.8,112c43.12,0,78.4,35.28,78.4,78.4v100.8c0,43.12-35.28,78.4-78.4,78.4s-78.4-35.28-78.4-78.4v-100.8c0-43.12,35.28-78.4,78.4-78.4h0Z"/>
  <path d="M100.8,207.2c6.16,0,11.2-5.04,11.2-11.2v-33.6c0-6.16-5.04-11.2-11.2-11.2s-11.2,5.04-11.2,11.2v33.6c0,6.16,5.04,11.2,11.2,11.2Z"/>
  <path d="M92.96,478.24c2.24,2.24,5.04,3.36,7.84,3.36s5.6-1.12,7.84-3.36l28-28c4.48-4.48,4.48-11.2,0-15.68-4.48-4.48-11.2-4.48-15.68,0l-20.16,20.16-20.16-20.16c-4.48-4.48-11.2-4.48-15.68,0-4.48,4.48-4.48,11.2,0,15.68l28,28Z"/>
  <path d="M92.96,3.36l-28,28c-4.48,4.48-4.48,11.2,0,15.68,2.24,2.24,5.04,3.36,7.84,3.36s5.6-1.12,7.84-3.36l20.16-20.16,20.16,20.16c2.24,2.24,5.04,3.36,7.84,3.36s5.6-1.12,7.84-3.36c4.48-4.48,4.48-11.2,0-15.68L108.64,3.36c-4.48-4.48-11.2-4.48-15.68,0h0Z"/>
</svg>