<svg id="Layer_2" data-name="Layer 2" xmlns="http://www.w3.org/2000/svg" viewBox="0 0 2297.33 557.98"><path d="M275.15,465.36c4.62-26.21,13.1-74,62.42-104C376.11,338.2,447,323.55,543.35,323.55c81.68,0,159.53,6.93,204.23,29.29,66.28,31.6,66.28,92.48,66.28,120.22V686.55c.77,31.6,4.62,43.16,22.35,60.11H647.39c-4.63-16.18-5.39-20.8-6.94-39.29-47,20-117.15,50.86-202.69,50.86-46.24,0-94.79-7.7-131.78-36.23-31.6-23.11-47.79-56.26-47.79-94.78,0-23.9,6.94-50.88,21.58-70.92,13.1-17.72,37-35.45,72.45-46.24,67.82-20.81,196.52-23.12,285.14-24.67,0-10.78,0-21.57-9.24-33.13-6.94-8.48-22.35-23.9-78.61-23.9-9.24,0-37.76,1.55-57.8,6.17-32.37,7.71-37,20-41.62,30.83ZM515.6,565.56c-26.21,2.3-74,6.93-74,43.16,0,12.33,9.25,40.84,64,40.84a170.52,170.52,0,0,0,86.32-23.13c37-20.81,43.16-45.47,48.55-67.82C610.39,560.16,546.43,562.46,515.6,565.56Z" transform="translate(-258.19 -201.01)"/><path d="M1066.6,539.35c0,65.5,44.71,112.53,119.46,112.53,20.8,0,49.33-3.87,72.44-20,22.35-14.64,28.51-30.06,34.68-44.7l181.11,6.16c-6.93,23.13-21.57,66.29-69.35,104.05C1336.34,752.06,1240,759,1173,759c-89.42,0-191.91-19.26-251.25-84.77-28.52-30.82-49.33-79.38-49.33-131.79,0-83.24,49.33-137.19,83.24-162.62,61.65-47,148.73-60.88,230.43-60.88,95.57,0,181.89,25.43,234.29,78.61,29.28,30.82,37.76,57.8,43.16,73.22L1284,486.94c-12.34-37.76-57-58.58-101-58.58C1115.93,428.36,1066.6,471.52,1066.6,539.35Z" transform="translate(-258.19 -201.01)"/><path d="M1516.67,201.78h181.12v94.79H1516.67Zm.77,136.42h180.35V745.89H1517.44Z" transform="translate(-258.19 -201.01)"/><path d="M2308.92,201V745.89H2127.81V705.82c-15.42,11.56-29.3,21.58-60.12,32.37a271.21,271.21,0,0,1-94,16.95c-128.71,0-216.56-87.08-216.56-211.94,0-114.07,76.29-218.88,218.88-218.88,82.46,0,123.31,31.6,151.82,53.95V201ZM1938.21,539.35c0,65.5,46.26,95.57,94,95.57,57.81,0,95.57-41.63,95.57-95.57,0-47-28.51-91.72-94-91.72C1976,447.63,1938.21,481.54,1938.21,539.35Z" transform="translate(-258.19 -201.01)"/><path d="M2378.25,604.09h177.26v141.8H2378.25Z" transform="translate(-258.19 -201.01)"/></svg>