<svg id="Layer_1" data-name="Layer 1" xmlns="http://www.w3.org/2000/svg" viewBox="0 0 711.52 1002.82"><path d="M451.07,191.45c-13.34,11.49-25.53,24.2-39.59,34.91C381.12,240.7,365,201.59,370,173.79c0,.42-.05.83-.06,1.25,3.84-21.85,41.82-131.86,20.58-141A4.92,4.92,0,0,1,393,35.15c-6-17.7,8.1-37.35,3-54h0c-4.64-24.64-10.88-30.07.08-54.93,1.32-6.94-3.93-11.4-2.3-18.63,3.49-10.79-.73-19.2-10.78-24.37-9.12,1.87-23,.39-27.63,10.09l.72-.39c-1.83,1.26-2.63,3.65-4,5.4-6.59-8.3-33.36-18.6-30,.89a3.32,3.32,0,0,0,1-.58c-4.5,18.36,3,44.26-15.4,56.25-14.16,3.21-2.17,73.67,1.58,82.4-6.6,28.58.5,59-5.46,87.83a1.06,1.06,0,0,0,1.23-.58l-.11.63c-4.81,1.35-5.95,9.12-13.09,8.29-6.91,3-1.73,14.85-6.3,19.58-7.91,9.94-1.75,25-4,37.09-.17,10.27,16.36,6,23.28,14.35a3.17,3.17,0,0,1,.17-.38c1.63,12.24.5,25.09,1,37.43,6.43,11.66,2.64,26.1-2.95,37.7-12.37,5.19-3.13,21.6-13.1,29.84-.94,4.92-2.31,9.49-6.1,13.29-2.09,6.75-2.92,16.19-12.8,15-12.9,24.31-30.28,20.53-25,55.86-11.7,32.32-25.61,62.07-52.31,84.85a1.71,1.71,0,0,0,1.79-.41c-14.71,13.23-37.73,7.7-47.85-9.8-10.12-13.84-8.74-39.12-25-45.13,2.13.24,4.38,0,5.26,2.48-8.94-28.44-36.45-45.9-55.85-67.47C61,343.76,51.38,328.29,39.6,315.26c-11.84-8.68-17.46-28.2-29.62-33.12l3.87.1C8.93,277.51,5.54,270.56-2,270.17.29,287.22-6.78,310.35.91,324.45c-1.29-.24-2-1.47-2.94-2.28v91c14.17,2.51,35.83-7.17,44.76,7,26.43,35,4.93,27.62,20.42,63.25C95.74,542.31,68,627.6,56.91,691c-9.43,60-20.49,121.36-34.8,180.69l-.18-.5C18.44,909.49,6.09,947.19.61,984.9c-.19-.92-.36-1.78-.55-2.68-5.85,72.88-.17,148.27-2.09,222H84c.52-16.42,4-32.56,6.11-48.83,1.2-24.72,15-48.63,12.85-73.19h0c-.11-1.45-.27-2.91-.45-4.36.51,2.56,1.06,5.09,1.62,7.57,6.69-38,6.75-79.68,15-116.06a3,3,0,0,1,.93.9c3.25-9,3.14-17.88,3.14-26.75a28.81,28.81,0,0,1,.86,7.72c3.66-23.16,9.08-46.77,7.87-70.07,13.54-18.72,5.86-57.52,17.76-78.23,5.67-5.54-.51-10.3,1-15.13C169.33,711.45,167,618.66,225,559.19c-.66.32-1.46.53-2.07.89,23.08-12-10.85-7,27.6-34.71,42.73-1.13,25-61.32,41.45-89.2l.15,1.38c6.5-5.39,9.92-12.19,11.61-20.18,13.56-20.6,31.85-41.06,39.27-64.18,17.27-5.89,26-26.8,26.88-43.86,10.56-11.47,26.35-17.6,38.29-28,7.59-2.91,16.6-3.39,20.83-12.09,7.17-6.28,11.46-14.62,20-18.95,7.62,5.31,8.18,1.65,13.07-4.81,5.51.52,10.18-.82,13-6,3-8.88,14.16-12.34,16.48-20.42C491.79,199.56,469,181.43,451.07,191.45ZM395.61-18.84c-.47-.08-.64.15-.59.61C395-18.69,395.14-18.92,395.61-18.84ZM389.91,53h0c-.08-.19-.17-.39-.26-.58C389.74,52.62,389.83,52.81,389.91,53Zm-1.86,16.16h0L388,70.34C388,70,388,69.56,388.05,69.17Zm-3.88-58.89h0c-.18.1-.39.2-.6.29C383.78,10.48,384,10.38,384.17,10.28ZM282.92,164.17a18.3,18.3,0,0,0,.08-2.59A18.3,18.3,0,0,1,282.92,164.17Zm15.22-28.83.11.06Zm5.34,60.81a1,1,0,0,0-.08-.11c.37.47.75.94,1.14,1.4A13.22,13.22,0,0,1,303.48,196.15Zm2.07-74.3a6.45,6.45,0,0,1,.37-2C305.8,120.5,305.67,121.17,305.55,121.85ZM4.76,392.53l3.16,5.73ZM11,332.17a9.56,9.56,0,0,0-1.22,2.59A9.56,9.56,0,0,1,11,332.17c0,.08,0,.15,0,.23C11,332.32,11,332.25,11,332.17ZM12,336a15,15,0,0,0,.91,2.26A15,15,0,0,1,12,336Zm27.09-8.27c-1.35-1.3-3.45-2.38-5.16-3.76C35.65,325.38,37.75,326.46,39.1,327.76Zm-12.87-20a5.71,5.71,0,0,0,4.53,3.15A5.71,5.71,0,0,1,26.23,307.74ZM34,334.17,29.17,326,34,334.17Zm2.89,33L43,370.26Zm22.64,36.47c.27.82.78,1.73,1.07,2.64C60.3,405.41,59.79,404.5,59.52,403.68Zm.11-1.89a2.39,2.39,0,0,1,1-.67A2.39,2.39,0,0,0,59.63,401.79ZM70.91,423l1,2.22a8.74,8.74,0,0,0-1.12,1.37A8.06,8.06,0,0,0,70.91,423Zm.45,61a15.18,15.18,0,0,1,3.75,2.84C73.87,485.85,72.64,484.88,71.36,484ZM71,472.17l4.88,6.47C75.09,477.77,73.57,475.72,71,472.17Zm4,3.05c.72,1.63,1.26,2.84,1.46,3.46C75.89,477.53,75.4,476.37,74.92,475.22Zm3,19.75a17.53,17.53,0,0,0-.66-4.85A9.75,9.75,0,0,1,77.93,495ZM6.77,1069.91a3.18,3.18,0,0,0,1.55.32A3.18,3.18,0,0,1,6.77,1069.91ZM25,930.18c-.1.35-.2.71-.29,1.09.15-.76.27-1.53.36-2.26C25,929.38,25,929.76,25,930.18Zm.57,208.7c.42.27.94.47,1.4.71C26.48,1139.35,26,1139.15,25.54,1138.88Zm2.33,2.61a1.21,1.21,0,0,0,0-1.18A1.21,1.21,0,0,1,27.87,1141.49ZM29,880.17h0q-1.54-5.22-3.1-10.44Q27.45,875,29,880.17a15.15,15.15,0,0,1,1.86,1.8A15.15,15.15,0,0,0,29,880.17Zm5.16,9.72a13.21,13.21,0,0,0-.9-4A13.21,13.21,0,0,1,34.15,889.89Zm-.39,84.64L39,972.18ZM49,847.18c-1.69-.5-2.3-1.17-2.32-2.24,0,1.07.63,1.74,2.32,2.24ZM54,913a1.7,1.7,0,0,0,.88.7A1.7,1.7,0,0,1,54,913Zm7.82-.19a7.87,7.87,0,0,0,.17,1.37A7,7,0,0,1,61.82,912.8Zm.37-33.46c.6.6,1.19,1.2,1.75,1.82a21.76,21.76,0,0,0-1.9,3A8.07,8.07,0,0,0,62.19,879.34ZM66.13,1018h0l-2.77,2,2.77-2Zm1.9,29.19c0-.32,0-.63-.07-1,.23,2.5.8,4.85,1.21,7.47C68.77,1051.4,68.4,1049.27,68,1047.15Zm-.85-31a6.81,6.81,0,0,1,4.63-2.56A6.81,6.81,0,0,0,67.18,1016.11Zm6.79-389a8.46,8.46,0,0,1-.82-1.19,14.7,14.7,0,0,0,1.7,1.64A6,6,0,0,0,74,627.15ZM75.71,635a6.29,6.29,0,0,1,.12-1.13A6.29,6.29,0,0,0,75.71,635ZM103.5,458.87c.35.74.29,1.77-.5,3.33C103.79,460.64,103.85,459.61,103.5,458.87ZM100,500.21l.39.43a2.05,2.05,0,0,0-.89-.43Zm-.74,0h0ZM96,391.15c-2.8,7-8.14,12.67-9.08,20C87.86,403.82,93.21,398.12,96,391.15ZM94.55,593.63a33.15,33.15,0,0,1-.59-3.47A33.15,33.15,0,0,0,94.55,593.63ZM93,860.57c0,1.35-.09,2.9-.11,4.47A35.08,35.08,0,0,1,93,860.57Zm-6.09-435a1.3,1.3,0,0,1-.1.81A1.3,1.3,0,0,0,86.92,425.57Zm-9.87,175c.11.67.24,1.34.37,2C77.28,601.88,77.14,601.21,77.05,600.54Zm.85,4.63c0,.18,0,.37,0,.55a10.64,10.64,0,0,0-.12-1.12C77.83,604.79,77.87,605,77.9,605.17Zm2.09,409-2.18-1.11.2.09h0a5.28,5.28,0,0,1,2,1Zm3-536h0l.06.06Zm1-48a7.71,7.71,0,0,1,3.3.78A7.86,7.86,0,0,0,83.93,430.12Zm2.58,57.39a23.36,23.36,0,0,0-1.13-3.75A8.2,8.2,0,0,1,86.51,487.51Zm-1.33,13.7a9.42,9.42,0,0,1,0-6.2A11,11,0,0,0,85.18,501.21Zm-.32,643.19c0-1.07.11-2.14.16-3.22C85,1142.26,84.91,1143.33,84.86,1144.4Zm.06-113.29c.12-1,.25-1.91.38-2.84A9.85,9.85,0,0,1,84.92,1031.11Zm.68-9.58a9.07,9.07,0,0,0-1.13-3.44c1.1.82,2.07,1.13,2.77.24a1.33,1.33,0,0,0,.31,1.32C86.41,1019.21,85.87,1020.08,85.6,1021.53Zm5.3-101.39c-.59.74-1.1,1.59-1.71,2.31C89.8,921.73,90.31,920.88,90.9,920.14Zm-1.44,44c.55-5.27.67-10.41,1.26-15.64C90.13,953.69,90,958.83,89.46,964.1ZM90.85,926a9,9,0,0,0,.61-4A9,9,0,0,1,90.85,926Zm.67,137.72c.47-2.44,1-5,1.46-7.54h0C92.48,1058.72,92,1061.27,91.52,1063.71Zm1.63-35.82c-2.09.6-.44,4.13.15,6.71C92.71,1032,91.06,1028.48,93.15,1027.89ZM94,872.2c-.13-.49-.25-1-.36-1.46a6.76,6.76,0,0,0,1.08,1.93A6.69,6.69,0,0,1,94,872.2Zm2,52.33a2.46,2.46,0,0,0-.87-2.95l1.8.62h0A10.4,10.4,0,0,1,96,924.53Zm5-147.45a41.39,41.39,0,0,0-2.26,3.5A11.22,11.22,0,0,1,101,777.08Zm1.07,142.31c-.32,1-.68,1.93-1.07,2.91C101.38,921.32,101.76,920.36,102.1,919.39Zm-1.61,141.71a35.93,35.93,0,0,1,1.61-13.33A46,46,0,0,0,100.49,1061.1Zm1.72-286.36c.1-.61.2-1.23.31-1.85A5.93,5.93,0,0,1,102.21,774.74Zm-.42-272.54,1.07,1.16A6.72,6.72,0,0,1,101.79,502.2ZM103,822.83a4,4,0,0,1,0-1.25Zm.32-1.63a1.26,1.26,0,0,1,.72,0ZM119,670.15l-1-2.47Zm-.54-209.57a11.24,11.24,0,0,0-1-4.33A11.24,11.24,0,0,1,118.47,460.58ZM110,833.19c-.09,2.75-.59,5.48-.85,8.22C109.41,838.67,109.91,835.94,110,833.19Zm.61,43a5.8,5.8,0,0,1-1,.75A9,9,0,0,1,110.61,876.23Zm-2.24,1.7a1.69,1.69,0,0,0-.42.69c0-.14,0-.28,0-.42l-.66.1A2.56,2.56,0,0,0,108.37,877.93ZM105.94,855c0,.46,0,.91,0,1.37A7.81,7.81,0,0,1,105.94,855Zm0,4.78a6.34,6.34,0,0,1-.69,2.35A6.53,6.53,0,0,0,105.89,859.8Zm-.34,35.5a5.69,5.69,0,0,1,1.1-1.24A7.16,7.16,0,0,0,105.55,895.3Zm2.1,83.7c.56-1.45.07-2.61-.72-3.86a9,9,0,0,1,3.07,5C109.31,977.88,108.44,977,107.65,979ZM110,998.77a9.7,9.7,0,0,0,.91-2.73c0,.36.07.72.12,1.07A5.76,5.76,0,0,1,110,998.77Zm1.06-1.72q.54-5.55,1.09-11.11C112.11,990,112.18,994.24,111,997.05Zm1-137.84c-.27.91-.53,1.83-.8,2.75q.75-2.65,1.42-5.32C112.42,857.49,112.21,858.35,112,859.21Zm1.28-152.43a22.37,22.37,0,0,1,1.68-2.59h0A22.37,22.37,0,0,0,113.29,706.78Zm3.49,164.38q.33-1.65.57-3.3Q117.11,869.51,116.78,871.16Zm.65-14.37c.1,1.74.22,4.18.26,7.76C117.65,861,117.53,858.53,117.43,856.79Zm-.11-2.22c-.08-2.35.26-2.33,2.14-3.93C117.58,852.25,117.25,852.25,117.32,854.57Zm1.48-60.93a14.55,14.55,0,0,1,1,4.74C119.51,796.85,119.15,795.26,118.8,793.64Zm-1-8.25a10.56,10.56,0,0,1,3.2-7.22A11.74,11.74,0,0,0,117.85,785.39Zm13.4-335c-.87-4.22-1.48-8.51-2.13-12.8Zm-7.56-7.69c.94,1.63,1.56,3.44,2.36,5.15A42.32,42.32,0,0,1,123.69,442.69Zm2.25,382.8a.87.87,0,0,0,.12.59A.87.87,0,0,1,125.94,825.49Zm.07-26.32,0-.56a7.91,7.91,0,0,0,.48,1.9C126.34,800.06,126.16,799.62,126,799.17Zm.82,44.05c.43,1.23.94,2.36,1.45,3.49A4.5,4.5,0,0,1,126.83,843.22Zm2.16-16.8a5.26,5.26,0,0,1,0-3.48C129,824.1,129,825.26,129,826.42Zm.17,67.27c-.35,1.56.27,3.25.25,4.85C129.43,896.94,128.81,895.25,129.16,893.69Zm1.21-37.52c-.12-1.74-.34-3.45-.41-5.15A13,13,0,0,1,130.37,856.17Zm.51-35.57a12.11,12.11,0,0,0,2.61-2.84A5.1,5.1,0,0,1,130.88,820.6Zm2.44-362.2c.88,2.24,1.75,4.49,2.67,6.71A51.21,51.21,0,0,1,133.32,458.4ZM162,586.17c0,1.34,0,2.69,0,4.05A26,26,0,0,1,162,586.17Zm-7-71,1.1.69a2.73,2.73,0,0,0-1.91-.34ZM150.69,517a10.93,10.93,0,0,1-2.67,1.14Zm-9.84-5.29a4.31,4.31,0,0,1-.52,3.11A10.5,10.5,0,0,0,140.85,511.75Zm-.33,62.2a18.46,18.46,0,0,0-.23-2.58A18.46,18.46,0,0,1,140.52,574Zm-.29-68.34a32.19,32.19,0,0,1-.49-4.51C139.92,502.6,140.07,504.11,140.23,505.61ZM140,578.16h0l3-1Zm3,118.21c.32-1.07.59-2.16.95-3.2C143.61,694.21,143.34,695.3,143,696.37Zm1.38-228.91,1.32,4C145.24,470.1,144.78,468.76,144.4,467.46Zm2,115.2a7.44,7.44,0,0,1,1.33-1.91C147.28,581.46,146.68,582.06,146.4,582.66Zm1.44-104.34c-.13-.63-.29-1.26-.47-1.9.2.6.39,1.19.59,1.78ZM148,714.45c.28.75.53,1.51.78,2.27C148.49,716,148.22,715.22,148,714.45Zm.58-52a10.67,10.67,0,0,1,1.15-3.45C149.34,660.16,149,661.31,148.57,662.46Zm1.57,59.41a69.15,69.15,0,0,1,1.18,7.1C151,726.61,150.46,724.23,150.14,721.87ZM153,528.17c-.91-1.43-1.81-2.87-2.71-4.3.9,1.43,1.8,2.87,2.71,4.3a4.57,4.57,0,0,0,1.22-1.79A4.57,4.57,0,0,1,153,528.17Zm1.26,71.74a4.1,4.1,0,0,0,1.24-2.11,7,7,0,0,0,.84,2.61C155.62,599.79,154.92,599.47,154.25,599.91Zm2.32-83.73,2.2,1.39Zm3.4,88a4.42,4.42,0,0,1-.88-.71,13,13,0,0,0,1.2.78Zm1.25-5.54a9.17,9.17,0,0,0,.82-3A4.4,4.4,0,0,1,161.22,598.63Zm1.2-2.46a4,4,0,0,1,.76-1.59C162.91,595.09,162.66,595.63,162.42,596.17ZM164,578.23c.74.41,1.49,1,2.24,1.51C165.44,579.28,164.69,578.64,164,578.23ZM188.51,594l.1-.14-.18.3Zm-5.65,19.85a17.77,17.77,0,0,1,2.47-4.4Zm-5.71-10.18c2.69,1.8,5.44,3.27,8.85,3.47C182.59,607,179.84,605.51,177.15,603.71ZM187,485.56a.83.83,0,0,0,.64.53,2,2,0,0,0-1,.27A2.06,2.06,0,0,0,187,485.56Zm.37,122.64a4.3,4.3,0,0,1,1.94-.05Zm5.38-20.2a23.63,23.63,0,0,0,.95-2.56A23.63,23.63,0,0,1,192.72,588Zm14-121a17.86,17.86,0,0,0-2,2.39A17.86,17.86,0,0,1,206.73,467Zm-6.59,6.39h0a6.17,6.17,0,0,1-.07,1.63A6.17,6.17,0,0,0,200.14,473.37Zm-1,4.62,0,0q.12-.28.21-.57C199.31,477.63,199.25,477.81,199.18,478Zm5.83,94.2q-2.69,2.82-5.34,5.69,2.66-2.86,5.34-5.69l1.85-.13Zm9-70h0a11.38,11.38,0,0,0,2.8,6.8A11.38,11.38,0,0,1,214,502.15ZM218.86,544a4.55,4.55,0,0,1,.4-.35C219.12,543.74,219,543.86,218.86,544Zm7.61,3.65c.26-.79.41-1.64.63-2.45C226.88,546,226.73,546.84,226.47,547.63Zm1.82-8a6.35,6.35,0,0,0,2.64-3.48A6.35,6.35,0,0,1,228.29,539.58Zm6.77-16.78a10.77,10.77,0,0,0,2.18.26A10.77,10.77,0,0,1,235.06,522.8Zm10.67-9.8c3.81-1.3,7.21-2.52,9.62-5.7C252.94,510.48,249.54,511.7,245.73,513Zm22.82-13.23c-2.12-1.73-2-5.34,6.38-17.65C271.3,489.47,266.05,495.55,268.55,499.77Zm7.64,8.42-.48,1.7c.48-3.11,0-5-.85-6.29.63.19,1.31.37,2.05.54A23.57,23.57,0,0,1,276.19,508.19Zm.82-5.65,0-3.37C277,500.3,277.06,501.43,277,502.54Zm1-60.49a3.06,3.06,0,0,1,.24-1.35A4.2,4.2,0,0,0,278,442.05Zm.79-2.44a3.13,3.13,0,0,1,1.43-1.23A3.75,3.75,0,0,0,278.79,439.61Zm1.19-47.4c.12-.5.25-1,.38-1.5A10,10,0,0,1,280,392.21Zm.88-3.45.15-.59.42-.34A3.07,3.07,0,0,0,280.86,388.76Zm9.34-74.87a22.16,22.16,0,0,0,0-3.37,37,37,0,0,0,4.45-5.09C293.11,308.22,291.53,311,290.2,313.89Zm12.68,92.38c1.1.68,2.19,1.42,3.3,2C305.07,407.69,304,407,302.88,406.27ZM307,276.19a9.73,9.73,0,0,1,.84-2.8A21.12,21.12,0,0,0,307,276.19Zm65.08-171c0,1.6.19,3.21.26,4.82C372.29,108.36,372.15,106.75,372.1,105.15Zm7.16,11.55a50.33,50.33,0,0,1-1.41,8.3C378.45,122.26,378.93,119.5,379.26,116.7ZM375,70.16c.23-1.3.53-2.58.79-3.87a60.26,60.26,0,0,0-.91,6.7Zm-.6,14.63c-.08,3.25-.19,6.49-.52,9.71C374.1,91.27,374.26,88,374.4,84.79Zm-1.71,17c-.23,1.11-.46,2.22-.66,3.32h0C372.23,104.05,372.46,102.94,372.69,101.83ZM371.53,14.4a9.21,9.21,0,0,1-5.25,2.25A24.81,24.81,0,0,0,371.53,14.4Zm-3.76,46.47c-.93,2.09-1.84,4.19-2.75,6.29h0C365.93,65.06,366.84,63,367.77,60.87Zm-9.26,125.48a16.55,16.55,0,0,1-2.56,2.93A16.55,16.55,0,0,0,358.51,186.35ZM355.58,18.71l-8.36,1.62A67.13,67.13,0,0,1,355.58,18.71Zm-12.6-86c0,1.39.09,2.8.11,4.17a9.07,9.07,0,0,0-1.6-3.31l1.44,1.58C343-65.64,343-66.46,343-67.27Zm-1-9.62h0l.87,5.26Zm-2-22.49c.8,3.35,2.09,6.89,2.67,10C342.12-92.49,340.83-96,340-99.38Zm.27-8.82a9.17,9.17,0,0,0-.81,6A9.17,9.17,0,0,1,340.3-108.2Zm-2.68,37.54c-.75-.76-1.48-1.53-2.13-2.33ZM325.29,2.13C328.24,2.28,333,0,334,2,333,0,328.24,2.28,325.29,2.13Zm7.53,84.67-1.82.36A7.08,7.08,0,0,1,332.82,86.8Zm-2.88-26.69c-.36,1.81-.29,3.87-.57,5.43C329.65,64,329.58,61.92,329.94,60.11Zm-4.94,16,.62-.69a3,3,0,0,0-.37,1.62A2.3,2.3,0,0,0,324.14,76Zm0-123c0-1.74.15-3.5.15-5.24C325.11-50.38,325-48.62,325-46.88Zm7.16,34.54a12.85,12.85,0,0,0-2.8,0A3.74,3.74,0,0,1,332.12-12.34Zm-3.84.52c-.26.71,1.22,2,2.85,3.44-1.65-.75-2.82-2.34-4.32-3.09A2.4,2.4,0,0,0,328.28-11.82Zm-3.31-20h0l1.07-.89Zm.33-47.89c-1.43-.68-2.09-2.59-2.45-4.83A13,13,0,0,0,325.3-79.73Zm-2,92.91a7.48,7.48,0,0,1-1-.07Zm0,115.55a32.29,32.29,0,0,1-.26,4.44Zm-1.68-9.24c-.17.51-.34,1.06-.53,1.65l1.73.3-1.73-.3C321.22,120.55,321.39,120,321.56,119.49ZM307,231.7a3.87,3.87,0,0,0,.85,1.08C307.2,232.57,306.67,232.33,307,231.7Zm.22-29.79a1.93,1.93,0,0,0-.36-1.95c.39.4.78.81,1.18,1.2Zm.65-54.56c.2-2.32,0-4.75.37-7C307.86,142.6,308,145,307.84,147.35Zm.53-7.9a9.93,9.93,0,0,1,.51-1.66A9.93,9.93,0,0,0,308.37,139.45ZM310.84,38c-1.58,3.26-2.48,7.36-1.19,8.81C308.36,45.33,309.26,41.23,310.84,38ZM309.6,234.45a4.69,4.69,0,0,1,1.29,2.31C310.54,236,310.05,235.22,309.6,234.45Zm2.24-89.55h0a16.53,16.53,0,0,0,.55,5.18A16.53,16.53,0,0,1,311.84,144.9Zm-1.94-19.5c1.25-1,2.57-2,3.78-3.09C312.49,123.39,311.16,124.37,309.9,125.4ZM317,334.16h0c.67-.8,1.52-1.53,2.11-2.36C318.49,332.63,317.64,333.36,317,334.16Zm-.48-30.82c.18-.4.38-.8.51-1.18C316.87,302.54,316.67,302.94,316.49,303.34ZM317,142.51a8.39,8.39,0,0,0,3.87-3A7.35,7.35,0,0,1,317,142.51Zm6.88,199.77a7.63,7.63,0,0,0,.7-1.86A7.63,7.63,0,0,1,323.86,342.28Zm1-11.79c.3-1.39.13-1.86-.52-2C325.06,328.61,325.35,329.08,324.89,330.49Zm-4.47-95.31a32,32,0,0,1,4.93,6.5Q322.88,238.44,320.42,235.18Zm1.19-74.93a37.8,37.8,0,0,1,5.66,5.51C325.45,163.86,323.58,162,321.61,160.25Zm7.94-50.08c-.56.66-1.17,1.31-1.67,2C328.38,111.48,329,110.83,329.55,110.17Zm2.89,157.1q-1.67-8.31-3.35-16.62A133.94,133.94,0,0,1,332.44,267.27Zm-1.82,12.79A150.26,150.26,0,0,0,334,294.92C332.85,290.19,331.26,284.7,330.62,280.06Zm1.83-323.41c2.09-2.26,4.28-4.46,6.12-6.84A39.73,39.73,0,0,1,332.45-43.35ZM334.87-2.8a5.86,5.86,0,0,0-.3-1.84A2.28,2.28,0,0,1,334.87-2.8Zm1.1,89-.69.14a1.7,1.7,0,0,0,.79-.73C336,85.79,336,86,336,86.18Zm2,92-.66-.9a14.53,14.53,0,0,0,1.69,1.9ZM338.9,1.05a8.44,8.44,0,0,1,.93-2.89A15,15,0,0,0,338.9,1.05ZM340,177.16l.23-.25a4.31,4.31,0,0,0,.89,3.13c-.2-.23-.47-.54-.86-.95C340.17,178.44,340.08,177.8,340,177.16Zm.8,27.86,3,.81A22.88,22.88,0,0,1,340.79,205Zm4.81.43a3.75,3.75,0,0,0,.41-2.16A2.58,2.58,0,0,1,345.6,205.45ZM342,181.17c1.11,2.22,3,4.1,4.22,6.13C345.05,185.27,343.12,183.39,342,181.17Zm2.95,2.05-.5-.38c.67.35,1.27.64,1.81.9Zm2.17,8.29a5.65,5.65,0,0,0-.5-3.44A5.58,5.58,0,0,1,347.13,191.51ZM349,320.23c0-.81,0-1.63,0-2.44,0,.81,0,1.63,0,2.44ZM345.36,163.3c1.57-1.72,3.13-3.44,4.7-5.15,0-1.92-3.33-1.39-4.7-2.12C353.48,156.94,349.79,159.44,345.36,163.3Zm10,157.45c1.91-1,3.83-1.44,4.66-3.5C359.17,319.31,357.25,319.78,355.34,320.75Zm3.42-5.07,1.27,1.51ZM361,210.16c0-.37,0-.74-.07-1.11a20.44,20.44,0,0,0,.43,2.44Zm-1.09-16.82h0l3,.92ZM359,155.16h0c.38-.55.8-1.09,1.21-1.63C359.81,154.07,359.39,154.61,359,155.16Zm0-21c1.64-7.34,3.27-14.68,4.95-22C362.26,119.5,360.63,126.84,359,134.18Zm6-67h0c.08.61.18,1.21.28,1.82C365.2,68.37,365.1,67.77,365,67.16Zm2.65,189.5c1.56.44,3.85,0,5.27.57C371.52,256.63,369.23,257.1,367.67,256.66ZM372.3,221c.25,3.35.73,6.69.77,10.06C373,227.68,372.55,224.34,372.3,221ZM378.43,300a5.5,5.5,0,0,1,1.27-.8Zm1.84-68.92c.18-1,.35-2,.51-2.88C380.62,229.16,380.45,230.09,380.27,231.12Zm14-.2c.14-.49.27-1,.4-1.48l1.29,0A3.51,3.51,0,0,0,394.28,230.92Zm2.65,4.13h0c.68-.16,1.38-.29,2.07-.44C398.31,234.76,397.61,234.89,396.93,235.05Zm5.95-4.58a9,9,0,0,0-2.64-1.2l3.91-.13-2,.07A5.25,5.25,0,0,0,402.88,230.47Zm7.67,38q1.74-3.66,3.46-7.32h0Q412.29,264.82,410.55,268.48Zm3.17-33.7c1.07-1.7,3.6-3.57,4.77-4.51A49.11,49.11,0,0,1,413.72,234.78Zm20.2-16.57A12.41,12.41,0,0,1,437,216C436,216.68,435,217.48,433.92,218.21Zm10.33-11.09a9.55,9.55,0,0,1-1.9-3.43A9.64,9.64,0,0,0,444.25,207.12Zm-.91,5.45c1.5-.68,2.12-1.45,2.22-2.26C445.46,211.12,444.84,211.89,443.34,212.57Zm10.8,38.4c-.18-.84-.36-1.68-.57-2.7.21,1,.39,1.86.57,2.69l6.84-6Zm6.93-6.75a7.12,7.12,0,0,1-5.16.17,7.12,7.12,0,0,0,5.16-.17Z"/></svg>