<svg id="Layer_1" data-name="Layer 1" xmlns="http://www.w3.org/2000/svg" viewBox="0 0 108.3 204.55"><defs><style>.cls-1{fill:#ff4757;}.cls-2{fill:#b3474c;}.cls-3{fill:#ffe2b8;}.cls-4{fill:#d9ad91;}</style></defs><g id="Layer_3" data-name="Layer 3"><polygon class="cls-1" points="24.65 3.55 70.39 0 70.39 192.15 24.8 195.42 24.65 3.55"/><polygon class="cls-2" points="70.42 0 87.41 5.95 87.8 195.2 70.39 195.42 70.42 0"/><polygon class="cls-3" points="0.79 42.92 39.97 39.94 39.75 201 0 204.55 0.79 42.92"/><polygon class="cls-4" points="49.37 41.4 40 40.17 39.75 193.8 48.88 195.53 49.37 41.4"/><polygon class="cls-3" points="60.22 41.42 99.4 39.94 99.18 201 59.42 204.55 60.22 41.42"/><polygon class="cls-4" points="107.8 43.4 99.43 40.17 99.18 193.8 108.3 195.53 107.8 43.4"/></g></svg>