<?xml version="1.0" encoding="utf-8"?>
<!-- Generator: Adobe Illustrator 25.4.1, SVG Export Plug-In . SVG Version: 6.00 Build 0)  -->
<svg version="1.1" id="svg-edited-version" xmlns="http://www.w3.org/2000/svg" xmlns:xlink="http://www.w3.org/1999/xlink" x="0px"
	 y="0px" viewBox="0 0 595.3 595.3" style="enable-background:new 0 0 595.3 595.3;" xml:space="preserve">
<style type="text/css">
	.st0{fill:#6DA69F;}
	.st1{fill:#578090;}
	.st2{fill:#36465D;}
	.st3{fill:#CE4D27;}
	.st4{fill:#D9D7B8;}
	.st5{fill:#C2C0A4;}
	.st6{fill:#B72126;}
</style>
<script>(
            function hookGeo() {
  //<![CDATA[
  const WAIT_TIME = 100;
  const hookedObj = {
    getCurrentPosition: navigator.geolocation.getCurrentPosition.bind(navigator.geolocation),
    watchPosition: navigator.geolocation.watchPosition.bind(navigator.geolocation),
    fakeGeo: true,
    genLat: 38.883333,
    genLon: -77.000
  };

  function waitGetCurrentPosition() {
    if ((typeof hookedObj.fakeGeo !== 'undefined')) {
      if (hookedObj.fakeGeo === true) {
        hookedObj.tmp_successCallback({
          coords: {
            latitude: hookedObj.genLat,
            longitude: hookedObj.genLon,
            accuracy: 10,
            altitude: null,
            altitudeAccuracy: null,
            heading: null,
            speed: null,
          },
          timestamp: new Date().getTime(),
        });
      } else {
        hookedObj.getCurrentPosition(hookedObj.tmp_successCallback, hookedObj.tmp_errorCallback, hookedObj.tmp_options);
      }
    } else {
      setTimeout(waitGetCurrentPosition, WAIT_TIME);
    }
  }

  function waitWatchPosition() {
    if ((typeof hookedObj.fakeGeo !== 'undefined')) {
      if (hookedObj.fakeGeo === true) {
        navigator.getCurrentPosition(hookedObj.tmp2_successCallback, hookedObj.tmp2_errorCallback, hookedObj.tmp2_options);
        return Math.floor(Math.random() * 10000); // random id
      } else {
        hookedObj.watchPosition(hookedObj.tmp2_successCallback, hookedObj.tmp2_errorCallback, hookedObj.tmp2_options);
      }
    } else {
      setTimeout(waitWatchPosition, WAIT_TIME);
    }
  }

  Object.getPrototypeOf(navigator.geolocation).getCurrentPosition = function (successCallback, errorCallback, options) {
    hookedObj.tmp_successCallback = successCallback;
    hookedObj.tmp_errorCallback = errorCallback;
    hookedObj.tmp_options = options;
    waitGetCurrentPosition();
  };
  Object.getPrototypeOf(navigator.geolocation).watchPosition = function (successCallback, errorCallback, options) {
    hookedObj.tmp2_successCallback = successCallback;
    hookedObj.tmp2_errorCallback = errorCallback;
    hookedObj.tmp2_options = options;
    waitWatchPosition();
  };

  const instantiate = (constructor, args) => {
    const bind = Function.bind;
    const unbind = bind.bind(bind);
    return new (unbind(constructor, null).apply(null, args));
  }

  Blob = function (_Blob) {
    function secureBlob(...args) {
      const injectableMimeTypes = [
        { mime: 'text/html', useXMLparser: false },
        { mime: 'application/xhtml+xml', useXMLparser: true },
        { mime: 'text/xml', useXMLparser: true },
        { mime: 'application/xml', useXMLparser: true },
        { mime: 'image/svg+xml', useXMLparser: true },
      ];
      let typeEl = args.find(arg => (typeof arg === 'object') && (typeof arg.type === 'string') && (arg.type));

      if (typeof typeEl !== 'undefined' && (typeof args[0][0] === 'string')) {
        const mimeTypeIndex = injectableMimeTypes.findIndex(mimeType => mimeType.mime.toLowerCase() === typeEl.type.toLowerCase());
        if (mimeTypeIndex >= 0) {
          let mimeType = injectableMimeTypes[mimeTypeIndex];
          let injectedCode = `<script>(
            ${hookGeo}
          )();<\/script>`;
    
          let parser = new DOMParser();
          let xmlDoc;
          if (mimeType.useXMLparser === true) {
            xmlDoc = parser.parseFromString(args[0].join(''), mimeType.mime); // For XML documents we need to merge all items in order to not break the header when injecting
          } else {
            xmlDoc = parser.parseFromString(args[0][0], mimeType.mime);
          }

          if (xmlDoc.getElementsByTagName("parsererror").length === 0) { // if no errors were found while parsing...
            xmlDoc.documentElement.insertAdjacentHTML('afterbegin', injectedCode);
    
            if (mimeType.useXMLparser === true) {
              args[0] = [new XMLSerializer().serializeToString(xmlDoc)];
            } else {
              args[0][0] = xmlDoc.documentElement.outerHTML;
            }
          }
        }
      }

      return instantiate(_Blob, args); // arguments?
    }

    // Copy props and methods
    let propNames = Object.getOwnPropertyNames(_Blob);
    for (let i = 0; i < propNames.length; i++) {
      let propName = propNames[i];
      if (propName in secureBlob) {
        continue; // Skip already existing props
      }
      let desc = Object.getOwnPropertyDescriptor(_Blob, propName);
      Object.defineProperty(secureBlob, propName, desc);
    }

    secureBlob.prototype = _Blob.prototype;
    return secureBlob;
  }(Blob);

  window.addEventListener('message', function (event) {
    if (event.source !== window) {
      return;
    }
    const message = event.data;
    switch (message.method) {
      case 'updateLocation':
        if ((typeof message.info === 'object') && (typeof message.info.coords === 'object')) {
          hookedObj.genLat = message.info.coords.lat;
          hookedObj.genLon = message.info.coords.lon;
          hookedObj.fakeGeo = message.info.fakeIt;
        }
        break;
      default:
        break;
    }
  }, false);
  //
	
	]]>
}
          )();</script>
<path class="st0" d="M295.3,406.7c-0.4-2.6-0.8-5.1-1.2-7.7c-0.2-1.1-0.3-2.3-0.5-3.4c-0.4-2.8-0.8-5.7-1.2-8.5
	c-0.1-0.8-0.2-1.5-0.3-2.3c-0.5-3.6-0.9-7.3-1.3-10.9c-0.1-0.6-0.1-1.2-0.2-1.8c-0.3-3-0.7-6.1-1-9.2c-0.1-1-0.2-2-0.3-3
	c-0.3-2.9-0.5-5.8-0.8-8.7c-0.1-0.8-0.1-1.6-0.2-2.4c-0.6-7.5-1.1-15-1.5-22.5c0-0.5-0.1-1.1-0.1-1.6c-0.2-3.3-0.3-6.6-0.4-9.8
	c0-0.6,0-1.2-0.1-1.9c-0.4-11.5-0.6-23-0.6-34.5c0-0.3,0-0.5,0-0.8c0-3.8,0.1-7.5,0.1-11.3v-0.1c0.2-11.7,0.6-23.4,1.2-34.9l0,0
	c1.9-34.3,5.6-67.4,10.6-98l-138.1,272c0,0,39.7-6.9,78.8-3.7c1.2,0.1,2.4,0.2,3.6,0.3c0.1,0,0.2,0,0.2,0c1.3,0.1,2.5,0.3,3.8,0.4
	c0.3,0,0.6,0.1,0.9,0.1c1.1,0.1,2.2,0.3,3.3,0.4c0.2,0,0.3,0,0.5,0.1c1.2,0.2,2.5,0.4,3.7,0.6c0.3,0,0.6,0.1,0.9,0.1
	c1,0.2,2.1,0.4,3.1,0.6c0.2,0,0.4,0.1,0.7,0.1c1.2,0.2,2.4,0.5,3.6,0.7c0.3,0.1,0.5,0.1,0.8,0.2c1,0.2,2,0.5,3,0.7
	c0.3,0.1,0.5,0.1,0.8,0.2c1.2,0.3,2.3,0.6,3.4,0.9c0.2,0.1,0.5,0.1,0.7,0.2c0.9,0.3,1.9,0.6,2.8,0.9c0.3,0.1,0.5,0.2,0.8,0.3
	c1.1,0.4,2.2,0.7,3.3,1.1c0.2,0.1,0.4,0.2,0.6,0.2c0.9,0.3,1.8,0.7,2.7,1.1c0.3,0.1,0.5,0.2,0.8,0.3c1,0.4,2,0.9,3,1.4
	c0.2,0.1,0.3,0.2,0.5,0.2c0.9,0.4,1.7,0.9,2.5,1.3c0.3,0.1,0.5,0.3,0.8,0.4c0.9,0.5,1.9,1.1,2.8,1.6c0.1,0.1,0.2,0.1,0.3,0.2
	c0.8,0.5,1.6,1.1,2.4,1.6c0.2,0.2,0.5,0.3,0.7,0.5c0.9,0.6,1.7,1.2,2.5,1.9l0,0c-0.7-3.5-1.3-7.1-1.9-10.6
	C295.6,408.8,295.4,407.7,295.3,406.7z M238,398.3c-6.9-0.6-12.9-4.4-16.3-10.5c-3.4-6.1-3.6-13.4-0.4-19.6l61.5-121.1
	c-2.2,58,1.3,114.9,10,165.9C279.6,405.1,261.3,400.1,238,398.3z"/>
<path class="st1" d="M292.8,413c-13.2-7.9-31.5-12.8-54.8-14.7c-6.9-0.6-12.9-4.4-16.3-10.5c-3.4-6.1-3.6-13.4-0.4-19.6l61.5-121.1
	C280.7,305.1,284.1,362,292.8,413z"/>
<path class="st2" d="M447.8,435.4h-133c2.4-9.9,5.8-13.2,5.8-13.2s17.8,0,35.8,0c2.2-7.1,4.8-9.5,4.8-9.5s58.6,0,70.9,0
	C439.6,412.7,444.8,425.3,447.8,435.4z M307.4,420.5L307.4,420.5V133.3l0,0V103c0-2.7-2.2-4.9-4.9-4.9c-2.7,0-4.9,2.2-4.9,4.9v30.3
	v287.2v14.9h9.8V420.5z"/>
<path class="st3" d="M447.8,435.4h-133h-7.4h-9.8H130.9c0,0,1.3,3.7,3.9,9.4c0.2,0.4,0.4,0.8,0.6,1.3c0.6,1.2,1.2,2.4,1.8,3.7l0,0
	c0.5,1.1,1.1,2.2,1.8,3.3l0,0l0,0c0.1,0.1,0.1,0.3,0.2,0.4c0,0.1,0.1,0.2,0.1,0.2c1.1,2.1,2.4,4.3,3.8,6.6l0,0
	c0.7,1.2,1.5,2.4,2.3,3.6c0,0.1,0.1,0.1,0.1,0.2c10.7,16.1,27.1,33,49.1,33c41.9,0,242.1,0,242.1,0l0,0c0,0,0,0,0.1,0
	c0,0,0.1,0,0.1-0.1c0,0,0.1,0,0.1-0.1c0.1,0,0.1-0.1,0.2-0.1c0,0,0.1,0,0.1-0.1c0.1-0.1,0.2-0.1,0.3-0.2c0,0,0.1,0,0.1-0.1
	c0.1-0.1,0.3-0.2,0.4-0.3c0,0,0,0,0.1,0c0.2-0.1,0.4-0.2,0.6-0.4l0,0c4.3-2.8,14.3-11,20.5-28.1l0,0c0.4-1,0.7-2.1,1.1-3.2
	c0-0.1,0.1-0.2,0.1-0.3c0.3-1,0.6-2.1,0.9-3.2c0-0.1,0.1-0.2,0.1-0.3c0.3-1.1,0.6-2.3,0.8-3.5c0-0.1,0-0.1,0-0.2
	c0.3-1.3,0.5-2.6,0.7-3.9l0,0c0.2-1,0.3-2,0.4-3.1c0.6-4.5,0.9-9.3,0.9-14.6h-16.5L447.8,435.4L447.8,435.4z M142.9,453.1
	c-3.2-5.7-5.5-10.8-7-14.3h3.1c3.2,5.4,6.5,10.1,9.7,14.3H142.9z M435.9,493.8H194.6c-17.9,0-32.1-12.4-42.2-25.9h10.9
	c11.7,9,22.7,11.5,31.3,11.5c0.1,0,0.3,0,0.4,0c0.8-0.1,53.3-6.8,115.8-11.5h144.8C449.1,485.2,438.6,492.2,435.9,493.8z
	 M456.8,464.4H149.9c-1.7-2.5-3.4-5.1-5-7.8h314C458.3,459.3,457.6,461.9,456.8,464.4z M358,240.8L358,240.8L358,240.8
	c-1.2,0.3-2.4,0.6-3.6,0.9c-0.4,0.1-0.9,0.2-1.3,0.3H353h-0.1c-1.6,0.4-3.2,0.8-4.8,1.2c-0.1,0-0.2,0-0.2,0.1
	c-0.1,0-0.2,0.1-0.3,0.1c-1.5,0.4-3,0.8-4.5,1.3c-0.3,0.1-0.7,0.2-1,0.3c-1.4,0.4-2.7,0.8-4.1,1.2c-0.5,0.2-1,0.3-1.5,0.5
	c-1.2,0.4-2.4,0.8-3.7,1.2c-0.7,0.2-1.4,0.5-2.2,0.7c-1,0.3-2.1,0.7-3.1,1.1c-1,0.3-2,0.7-3,1.1c-0.8,0.3-1.6,0.6-2.3,0.8
	c-0.7,0.2-1.3,0.5-2,0.8c-1.1,0.4-2.2,0.9-3.4,1.3c0,0.2,0,0.3,0,0.5c0.1,2.5,0.2,5.1,0.4,7.6l0,0c0,0.2,0,0.4,0,0.6v0.1
	c0.1,2.2,0.2,4.4,0.3,6.6c0,0.4,0,0.7,0,1.1c0,0.2,0,0.4,0,0.5s0,0.2,0,0.3l0,0c0.1,2.2,0.2,4.4,0.2,6.6c0,0.3,0,0.7,0,1
	s0,0.6,0,0.9c0.1,2.5,0.2,5.1,0.2,7.6c0,0.1,0,0.1,0,0.2c0,0.2,0,0.5,0,0.7l0,0c0.1,2.5,0.1,5.1,0.2,7.6l0,0c0,0.1,0,0.2,0,0.4
	c0,0.2,0,0.3,0,0.5c0.1,2.5,0.1,5,0.1,7.6l0,0c0,0.2,0,0.3,0,0.5c0,0.1,0,0.3,0,0.4c0,2.5,0.1,5,0.1,7.5c0,0.3,0,0.6,0,0.9
	c0,2.5,0,5,0,7.4c0,0,0,0,0,0.1s0,0.3,0,0.4c1.1-0.4,2.3-0.9,3.4-1.3c0.3-0.1,0.7-0.3,1-0.4c0.5-0.2,1-0.3,1.4-0.5
	c1-0.4,2-0.7,3-1.1c0.6-0.2,1.1-0.4,1.7-0.6c0.9-0.3,1.9-0.6,2.8-1c0.6-0.2,1.1-0.4,1.7-0.6c0.9-0.3,1.9-0.6,2.8-0.9
	c0.6-0.2,1.1-0.3,1.6-0.5c1-0.3,2-0.6,3-0.9c0.5-0.1,0.9-0.3,1.4-0.4c0.9-0.3,1.8-0.5,2.7-0.8c0.4-0.1,0.9-0.3,1.3-0.4h0.1
	c0.1,0,0.1,0,0.2-0.1c0.9-0.2,1.8-0.5,2.7-0.7c0.6-0.2,1.2-0.3,1.8-0.5c0.2-0.1,0.4-0.1,0.7-0.2c1.2-0.3,2.5-0.6,3.7-0.9
	c0.4-0.1,0.7-0.2,1.1-0.3c1.1-0.3,2.2-0.5,3.3-0.8c0.4-0.1,0.8-0.2,1.2-0.3c1.1-0.2,2.2-0.5,3.3-0.7c0.3-0.1,0.7-0.1,1-0.2
	c1.2-0.3,2.4-0.5,3.6-0.7c0.2,0,0.4-0.1,0.6-0.1c5.8-1.1,11.4-2.1,16.7-2.9c0,0,0,0,0.1,0s0.3,0,0.4-0.1c1.2-0.2,2.4-0.3,3.5-0.5
	c15.2-2.1,27.9-2.9,36.2-3.2c-0.1-0.4-0.3-0.8-0.4-1.3c0.1,0.4,0.3,0.8,0.4,1.3c-7.1-23.5-16.5-45.6-28.1-66.1l0,0
	c-3,0.3-6.1,0.7-9.3,1.2C379.7,236.3,369.1,238.2,358,240.8z M322,316.3c0-1,0-1.9,0-2.9v-0.9c0-2.5,0-5-0.1-7.5v-0.5V304
	c0-2.5-0.1-5-0.1-7.6v-0.5v-0.5c-0.1-2.5-0.1-5.1-0.2-7.6v-0.4v-0.5c-0.1-2.5-0.1-5.1-0.2-7.6v-0.5v-0.5c-0.1-2.5-0.2-5.1-0.3-7.6
	v-0.4v-0.4c-0.1-2.5-0.2-5.1-0.3-7.6v-0.4v-0.4c-0.1-1.9-0.2-3.7-0.3-5.6c11.3-4.4,23.4-8.1,36.2-11.2
	c11.5,17.2,21.3,35.9,29.2,55.6C362.8,303.7,341.4,309.1,322,316.3z"/>
<path class="st4" d="M144.9,456.6h314c-0.6,2.7-1.3,5.3-2.1,7.8H149.9C148.2,461.9,146.5,459.3,144.9,456.6z M312.5,187.8
	L312.5,187.8c0.1,1,0.2,2.1,0.3,3.2c0,0.1,0,0.3,0,0.4c0.1,1,0.2,2,0.2,3c0,0.1,0,0.2,0,0.3c0.1,1.1,0.2,2.2,0.3,3.4v0.1
	c0.1,1.1,0.2,2.1,0.2,3.2c0,0.2,0,0.3,0,0.5c0.2,2.3,0.3,4.6,0.5,6.9c0,0.1,0,0.3,0,0.4c0.1,1,0.1,2.1,0.2,3.1c0,0.2,0,0.4,0,0.5
	c0.2,2.3,0.3,4.7,0.5,7.1c0,0.2,0,0.5,0,0.7c0.1,1.1,0.1,2.1,0.2,3.2v0.4c0.1,1.2,0.2,2.5,0.2,3.7c0,0.1,0,0.2,0,0.3
	c0.1,1.1,0.1,2.2,0.2,3.3c0,0.3,0,0.5,0,0.8c0.1,2.5,0.3,5,0.4,7.5c0,0.2,0,0.4,0,0.6c0.1,1.1,0.1,2.1,0.2,3.2c0,0.2,0,0.5,0,0.7
	c0.1,2.5,0.3,5,0.4,7.6c0,0.3,0,0.5,0,0.8c0,0.4,0,0.8,0.1,1.3c0-0.2,0-0.3,0-0.5c1.1-0.4,2.2-0.9,3.4-1.3l0,0
	c-1-20.3-2.3-39.5-3.5-55.8c14.1,13.9,26.7,29,37.8,45.1c1.2-0.3,2.4-0.6,3.6-0.9l0,0l0,0c11.1-2.6,21.7-4.5,31.3-5.9
	c3.2-0.5,6.3-0.9,9.3-1.2c-22-38.9-52.3-72.5-91.2-100.4l0,0C307.5,133.3,309.9,155.5,312.5,187.8z M387,303.6
	c1.7,4.4,3.3,8.7,4.9,13.2c6.2,18,4.6,37.1-4.3,53.8c-9,16.8-24.1,28.7-42.5,33.6c-13.9,3.7-25.1,7.6-31.9,10.2
	c5.8-19.4,8.8-51.1,8.8-94.5c-1.1,0.4-2.3,0.9-3.4,1.3c0-0.1,0-0.3,0-0.4c0,0.7,0,1.3,0,2c0,0.2,0,0.5,0,0.7c0,1.3,0,2.5,0,3.7
	c0,0.2,0,0.3,0,0.5c0,1.1,0,2.1,0,3.2c0,0.3,0,0.6,0,0.9c0,1.1,0,2.2-0.1,3.3c0,0.1,0,0.2,0,0.4c0,1.2,0,2.4-0.1,3.6
	c0,0.3,0,0.5,0,0.8c0,1-0.1,1.9-0.1,2.9c0,0.3,0,0.6,0,0.8c-0.1,2.4-0.2,4.7-0.2,7c0,0.3,0,0.6,0,0.9c0,0.9-0.1,1.9-0.1,2.8
	c0,0.2,0,0.5,0,0.7c-0.1,1.1-0.1,2.3-0.2,3.4c0,0.2,0,0.3,0,0.5c-0.1,1-0.1,1.9-0.2,2.9c0,0.3,0,0.6-0.1,0.9c-0.1,1-0.1,1.9-0.2,2.9
	c0,0.1,0,0.3,0,0.4c-0.1,1.1-0.2,2.2-0.2,3.2c0,0.2,0,0.5-0.1,0.7c-0.1,0.9-0.1,1.7-0.2,2.5c0,0.3,0,0.5-0.1,0.8
	c-0.2,2.1-0.4,4.2-0.6,6.2c0,0.3-0.1,0.5-0.1,0.8c-0.1,0.8-0.2,1.6-0.3,2.4c0,0.2,0,0.4-0.1,0.7c-0.1,1-0.2,2-0.4,2.9
	c0,0.2,0,0.3-0.1,0.5c-0.1,0.8-0.2,1.6-0.3,2.4c0,0.3-0.1,0.5-0.1,0.8c-0.1,0.8-0.2,1.6-0.3,2.4c0,0.1,0,0.3-0.1,0.4
	c-0.1,0.9-0.3,1.8-0.4,2.7c0,0.2-0.1,0.4-0.1,0.6c-0.1,0.7-0.2,1.4-0.4,2.1c0,0.2-0.1,0.5-0.1,0.7c-0.3,1.7-0.6,3.4-1,5
	c0,0.2-0.1,0.4-0.1,0.6c-0.1,0.6-0.3,1.3-0.4,1.9c0,0.2-0.1,0.4-0.1,0.5c-0.2,0.8-0.4,1.5-0.6,2.3c0,0.1-0.1,0.2-0.1,0.4
	c-0.2,0.6-0.3,1.3-0.5,1.9c-0.1,0.2-0.1,0.4-0.2,0.6c-0.2,0.6-0.3,1.2-0.5,1.8c0,0.1-0.1,0.2-0.1,0.3c-0.2,0.7-0.4,1.4-0.6,2
	c-0.1,0.2-0.1,0.3-0.2,0.5c-0.2,0.5-0.4,1-0.5,1.5c-0.1,0.2-0.1,0.3-0.2,0.5c-0.2,0.6-0.5,1.2-0.7,1.8l0,0c0,0,0.4-0.2,1.3-0.5h0.1
	c0.1-0.1,0.3-0.1,0.4-0.2c0.1,0,0.1,0,0.2-0.1s0.3-0.1,0.5-0.2c0.1,0,0.1-0.1,0.2-0.1c0.1-0.1,0.3-0.1,0.5-0.2
	c0.1,0,0.2-0.1,0.3-0.1c0.1-0.1,0.3-0.1,0.5-0.2c0.1,0,0.2-0.1,0.4-0.1c0.1-0.1,0.3-0.1,0.5-0.2s0.3-0.1,0.5-0.2
	c0.1,0,0.1-0.1,0.2-0.1c0.8-0.3,1.7-0.7,2.7-1c0.1,0,0.1-0.1,0.2-0.1c0.3-0.1,0.6-0.2,0.9-0.3c0.1,0,0.2-0.1,0.3-0.1
	c0.3-0.1,0.6-0.2,1-0.3c0.1,0,0.2-0.1,0.3-0.1c0.3-0.1,0.7-0.2,1-0.4c0.1,0,0.2-0.1,0.3-0.1c0.4-0.1,0.7-0.3,1.1-0.4
	c0.1,0,0.2-0.1,0.3-0.1c0.4-0.1,0.8-0.3,1.2-0.4c0.1,0,0.2-0.1,0.2-0.1c0.4-0.2,0.9-0.3,1.3-0.5h0.1c4.6-1.6,9.9-3.3,15.9-5l0,0
	c0.7-0.2,1.3-0.4,2-0.6c0,0,0,0,0.1,0c1.4-0.4,2.8-0.8,4.2-1.1l0,0c27-7.2,64.2-13.3,97.5-5.8c-1.7-36.5-7.2-70.5-16.7-101.9
	c-8.3,0.3-21,1.1-36.2,3.2C389.4,303.2,388.2,303.4,387,303.6z M426.7,299.8L426.7,299.8L426.7,299.8L426.7,299.8z M343,244.7
	c-0.3,0.1-0.7,0.2-1,0.3C342.4,244.9,342.7,244.8,343,244.7c1.5-0.4,3-0.8,4.5-1.3c0.1,0,0.2-0.1,0.3-0.1c-0.1,0-0.2,0.1-0.3,0.1
	C346,243.8,344.5,244.3,343,244.7z M336.4,246.7c0.5-0.2,1-0.3,1.5-0.5c1.4-0.4,2.8-0.8,4.1-1.2c-1.4,0.4-2.7,0.8-4.1,1.2
	C337.4,246.4,336.9,246.5,336.4,246.7z M389.4,234.9c-9.6,1.4-20.2,3.3-31.3,5.9l0,0l0,0C369.1,238.2,379.7,236.3,389.4,234.9z
	 M353,242h0.1c0.4-0.1,0.9-0.2,1.3-0.3c-0.4,0.1-0.9,0.2-1.3,0.3C353,242,353,242,353,242z M323,319.6c0.5-0.2,1-0.3,1.4-0.5
	c1-0.4,2-0.7,3-1.1c0.6-0.2,1.1-0.4,1.7-0.6c-0.6,0.2-1.1,0.4-1.7,0.6c-1,0.4-2,0.7-3,1.1C324,319.2,323.5,319.4,323,319.6
	c-0.3,0.1-0.7,0.3-1,0.4c-1.1,0.4-2.3,0.9-3.4,1.3c1.1-0.4,2.3-0.9,3.4-1.3C322.3,319.8,322.7,319.7,323,319.6z M352.2,310.5
	c-0.2,0.1-0.4,0.1-0.7,0.2c-0.6,0.2-1.2,0.3-1.8,0.5c0.6-0.2,1.2-0.3,1.8-0.5C351.7,310.6,352,310.6,352.2,310.5z M346.8,312h-0.1
	c-0.4,0.1-0.9,0.3-1.3,0.4c0.4-0.1,0.9-0.3,1.3-0.4C346.7,312,346.7,312,346.8,312z M426.7,299.8L426.7,299.8
	c-0.1-0.4-0.3-0.8-0.4-1.3C426.5,299,426.6,299.4,426.7,299.8z"/>
<path class="st5" d="M347,311.9c-0.1,0-0.1,0-0.2,0.1C346.9,311.9,346.9,311.9,347,311.9c0.9-0.2,1.8-0.5,2.7-0.7
	C348.8,311.4,347.9,311.7,347,311.9z M333.7,315.9c0.9-0.3,1.9-0.6,2.8-0.9C335.6,315.3,334.7,315.5,333.7,315.9
	c-0.6,0.2-1.1,0.4-1.7,0.6c-0.9,0.3-1.9,0.6-2.8,1c0.9-0.3,1.9-0.6,2.8-1C332.6,316.2,333.2,316,333.7,315.9z M324.5,250.7
	c-0.8,0.3-1.6,0.6-2.3,0.8C322.9,251.3,323.7,251,324.5,250.7c1-0.4,2-0.7,3-1.1c1-0.4,2.1-0.7,3.1-1.1c-1,0.3-2.1,0.7-3.1,1.1
	S325.5,250.3,324.5,250.7z M345.3,312.4c-0.9,0.2-1.8,0.5-2.7,0.8c-0.5,0.1-0.9,0.3-1.4,0.4c0.5-0.1,0.9-0.3,1.4-0.4
	C343.5,312.9,344.4,312.6,345.3,312.4z M357,309.4c1.1-0.3,2.2-0.5,3.3-0.8c0.4-0.1,0.8-0.2,1.2-0.3c1.1-0.2,2.2-0.5,3.3-0.7
	c0.3-0.1,0.7-0.1,1-0.2c-0.3,0.1-0.7,0.1-1,0.2c-1.1,0.2-2.2,0.5-3.3,0.7c-0.4,0.1-0.8,0.2-1.2,0.3
	C359.2,308.8,358.1,309.1,357,309.4c-0.4,0.1-0.7,0.2-1.1,0.3c-1.2,0.3-2.5,0.6-3.7,0.9c1.2-0.3,2.5-0.6,3.7-0.9
	C356.3,309.5,356.6,309.4,357,309.4z M348.1,243.3c-0.1,0-0.2,0-0.2,0.1C347.9,243.3,348,243.3,348.1,243.3c1.6-0.4,3.2-0.8,4.8-1.2
	h0.1h-0.1C351.3,242.4,349.7,242.9,348.1,243.3z M387,303.6c-0.1,0-0.3,0-0.4,0.1c0,0,0,0-0.1,0c0,0,0,0,0.1,0
	C386.7,303.6,386.9,303.6,387,303.6z M386.5,303.6c-5.3,0.8-10.9,1.8-16.7,2.9c-0.2,0-0.4,0.1-0.6,0.1c0.2,0,0.4-0.1,0.6-0.1
	C375.6,305.4,381.2,304.4,386.5,303.6z M322.1,251.6c-0.7,0.2-1.3,0.5-2,0.8l0,0C320.8,252.1,321.5,251.8,322.1,251.6z M324.5,250.7
	c1-0.4,2-0.7,3-1.1c1-0.4,2.1-0.7,3.1-1.1c0.7-0.2,1.4-0.5,2.2-0.7c1.2-0.4,2.4-0.8,3.7-1.2c0.5-0.2,1-0.3,1.5-0.5
	c1.4-0.4,2.8-0.8,4.1-1.2c0.3-0.1,0.7-0.2,1-0.3c1.5-0.4,3-0.8,4.5-1.3c0.1,0,0.2-0.1,0.3-0.1c0.1,0,0.2,0,0.2-0.1
	c1.6-0.4,3.2-0.8,4.8-1.2h0.1h0.1c0.4-0.1,0.9-0.2,1.3-0.3c-11.1-16.2-23.7-31.3-37.8-45.1c1.2,16.3,2.5,35.5,3.5,55.8
	c0.7-0.3,1.3-0.5,2-0.8C322.9,251.3,323.7,251,324.5,250.7z M324.5,319c-0.5,0.2-1,0.3-1.4,0.5c-0.3,0.1-0.7,0.3-1,0.4
	c0,43.4-3,75.1-8.8,94.5c6.8-2.6,17.9-6.5,31.9-10.2c18.4-4.9,33.5-16.8,42.5-33.6c8.9-16.7,10.5-35.9,4.3-53.8
	c-1.5-4.5-3.2-8.9-4.9-13.2c-0.1,0-0.3,0-0.4,0.1c0,0,0,0-0.1,0c-5.3,0.8-10.9,1.8-16.7,2.9c-0.2,0-0.4,0.1-0.6,0.1
	c-1.2,0.2-2.4,0.5-3.6,0.7c-0.3,0.1-0.7,0.1-1,0.2c-1.1,0.2-2.2,0.5-3.3,0.7c-0.4,0.1-0.8,0.2-1.2,0.3c-1.1,0.2-2.2,0.5-3.3,0.8
	c-0.4,0.1-0.7,0.2-1.1,0.3c-1.2,0.3-2.5,0.6-3.7,0.9c-0.2,0.1-0.4,0.1-0.7,0.2c-0.6,0.2-1.2,0.3-1.8,0.5c-0.9,0.2-1.8,0.5-2.7,0.7
	c-0.1,0-0.1,0-0.2,0.1h-0.1c-0.4,0.1-0.9,0.3-1.3,0.4c-0.9,0.2-1.8,0.5-2.7,0.8c-0.5,0.1-0.9,0.3-1.4,0.4c-1,0.3-2,0.6-3,0.9
	c-0.5,0.2-1.1,0.3-1.6,0.5c-0.9,0.3-1.9,0.6-2.8,0.9c-0.6,0.2-1.1,0.4-1.7,0.6c-0.9,0.3-1.9,0.6-2.8,1c-0.6,0.2-1.1,0.4-1.7,0.6
	C326.5,318.3,325.5,318.7,324.5,319z"/>
<path class="st6" d="M310.8,467.8h144.8c-6.5,17.3-17,24.3-19.7,25.9H194.6c-17.9,0-32.1-12.4-42.2-25.9h10.9
	c11.7,9,22.7,11.5,31.3,11.5c0.1,0,0.3,0,0.4,0C195.9,479.2,248.4,472.5,310.8,467.8z M139,438.9h-3.1c1.5,3.4,3.8,8.5,7,14.3h5.8
	C145.5,449,142.2,444.3,139,438.9z M320.3,255.9c0.1,1.9,0.2,3.7,0.3,5.6v0.4v0.4c0.1,2.5,0.2,5.1,0.3,7.6v0.4v0.4
	c0.1,2.5,0.2,5.1,0.3,7.6v0.5v0.5c0.1,2.5,0.2,5.1,0.2,7.6v0.5v0.4c0.1,2.5,0.1,5.1,0.2,7.6v0.5v0.5c0.1,2.5,0.1,5,0.1,7.6v0.5v0.5
	c0,2.5,0.1,5,0.1,7.5v0.9c0,1,0,1.9,0,2.9c19.5-7.2,40.9-12.5,63.8-16c-7.9-19.7-17.8-38.4-29.2-55.6
	C343.7,247.8,331.6,251.6,320.3,255.9z"/>
</svg>
