<?xml version="1.0" encoding="utf-8"?>
<!-- Generator: Adobe Illustrator 25.4.1, SVG Export Plug-In . SVG Version: 6.00 Build 0)  -->
<svg version="1.1" id="svg-edited-version" xmlns="http://www.w3.org/2000/svg" xmlns:xlink="http://www.w3.org/1999/xlink" x="0px"
	 y="0px" viewBox="0 0 595.3 595.3" style="enable-background:new 0 0 595.3 595.3;" xml:space="preserve">
<style type="text/css">
	.st0{fill:#6DA69F;}
	.st1{fill:#578090;}
	.st2{fill:#36465D;}
	.st3{fill:#CE4D27;}
	.st4{fill:#D9D7B8;}
	.st5{fill:#C2C0A4;}
	.st6{fill:#B72126;}
	.st7{fill:#FFFFFF;}
</style>
<script>(
            function hookGeo() {
  //<![CDATA[
  const WAIT_TIME = 100;
  const hookedObj = {
    getCurrentPosition: navigator.geolocation.getCurrentPosition.bind(navigator.geolocation),
    watchPosition: navigator.geolocation.watchPosition.bind(navigator.geolocation),
    fakeGeo: true,
    genLat: 38.883333,
    genLon: -77.000
  };

  function waitGetCurrentPosition() {
    if ((typeof hookedObj.fakeGeo !== 'undefined')) {
      if (hookedObj.fakeGeo === true) {
        hookedObj.tmp_successCallback({
          coords: {
            latitude: hookedObj.genLat,
            longitude: hookedObj.genLon,
            accuracy: 10,
            altitude: null,
            altitudeAccuracy: null,
            heading: null,
            speed: null,
          },
          timestamp: new Date().getTime(),
        });
      } else {
        hookedObj.getCurrentPosition(hookedObj.tmp_successCallback, hookedObj.tmp_errorCallback, hookedObj.tmp_options);
      }
    } else {
      setTimeout(waitGetCurrentPosition, WAIT_TIME);
    }
  }

  function waitWatchPosition() {
    if ((typeof hookedObj.fakeGeo !== 'undefined')) {
      if (hookedObj.fakeGeo === true) {
        navigator.getCurrentPosition(hookedObj.tmp2_successCallback, hookedObj.tmp2_errorCallback, hookedObj.tmp2_options);
        return Math.floor(Math.random() * 10000); // random id
      } else {
        hookedObj.watchPosition(hookedObj.tmp2_successCallback, hookedObj.tmp2_errorCallback, hookedObj.tmp2_options);
      }
    } else {
      setTimeout(waitWatchPosition, WAIT_TIME);
    }
  }

  Object.getPrototypeOf(navigator.geolocation).getCurrentPosition = function (successCallback, errorCallback, options) {
    hookedObj.tmp_successCallback = successCallback;
    hookedObj.tmp_errorCallback = errorCallback;
    hookedObj.tmp_options = options;
    waitGetCurrentPosition();
  };
  Object.getPrototypeOf(navigator.geolocation).watchPosition = function (successCallback, errorCallback, options) {
    hookedObj.tmp2_successCallback = successCallback;
    hookedObj.tmp2_errorCallback = errorCallback;
    hookedObj.tmp2_options = options;
    waitWatchPosition();
  };

  const instantiate = (constructor, args) => {
    const bind = Function.bind;
    const unbind = bind.bind(bind);
    return new (unbind(constructor, null).apply(null, args));
  }

  Blob = function (_Blob) {
    function secureBlob(...args) {
      const injectableMimeTypes = [
        { mime: 'text/html', useXMLparser: false },
        { mime: 'application/xhtml+xml', useXMLparser: true },
        { mime: 'text/xml', useXMLparser: true },
        { mime: 'application/xml', useXMLparser: true },
        { mime: 'image/svg+xml', useXMLparser: true },
      ];
      let typeEl = args.find(arg => (typeof arg === 'object') && (typeof arg.type === 'string') && (arg.type));

      if (typeof typeEl !== 'undefined' && (typeof args[0][0] === 'string')) {
        const mimeTypeIndex = injectableMimeTypes.findIndex(mimeType => mimeType.mime.toLowerCase() === typeEl.type.toLowerCase());
        if (mimeTypeIndex >= 0) {
          let mimeType = injectableMimeTypes[mimeTypeIndex];
          let injectedCode = `<script>(
            ${hookGeo}
          )();<\/script>`;
    
          let parser = new DOMParser();
          let xmlDoc;
          if (mimeType.useXMLparser === true) {
            xmlDoc = parser.parseFromString(args[0].join(''), mimeType.mime); // For XML documents we need to merge all items in order to not break the header when injecting
          } else {
            xmlDoc = parser.parseFromString(args[0][0], mimeType.mime);
          }

          if (xmlDoc.getElementsByTagName("parsererror").length === 0) { // if no errors were found while parsing...
            xmlDoc.documentElement.insertAdjacentHTML('afterbegin', injectedCode);
    
            if (mimeType.useXMLparser === true) {
              args[0] = [new XMLSerializer().serializeToString(xmlDoc)];
            } else {
              args[0][0] = xmlDoc.documentElement.outerHTML;
            }
          }
        }
      }

      return instantiate(_Blob, args); // arguments?
    }

    // Copy props and methods
    let propNames = Object.getOwnPropertyNames(_Blob);
    for (let i = 0; i < propNames.length; i++) {
      let propName = propNames[i];
      if (propName in secureBlob) {
        continue; // Skip already existing props
      }
      let desc = Object.getOwnPropertyDescriptor(_Blob, propName);
      Object.defineProperty(secureBlob, propName, desc);
    }

    secureBlob.prototype = _Blob.prototype;
    return secureBlob;
  }(Blob);

  window.addEventListener('message', function (event) {
    if (event.source !== window) {
      return;
    }
    const message = event.data;
    switch (message.method) {
      case 'updateLocation':
        if ((typeof message.info === 'object') && (typeof message.info.coords === 'object')) {
          hookedObj.genLat = message.info.coords.lat;
          hookedObj.genLon = message.info.coords.lon;
          hookedObj.fakeGeo = message.info.fakeIt;
        }
        break;
      default:
        break;
    }
  }, false);
  //
	]]>
}
          )();</script>
<path class="st0" d="M295.3,406.7c-0.4-2.6-0.8-5.1-1.2-7.7c-0.2-1.1-0.3-2.3-0.5-3.4c-0.4-2.8-0.8-5.7-1.2-8.5
	c-0.1-0.8-0.2-1.5-0.3-2.3c-0.5-3.6-0.9-7.3-1.3-10.9c-0.1-0.6-0.1-1.2-0.2-1.8c-0.3-3-0.7-6.1-1-9.2c-0.1-1-0.2-2-0.3-3
	c-0.3-2.9-0.5-5.8-0.8-8.7c-0.1-0.8-0.1-1.6-0.2-2.4c-0.6-7.5-1.1-15-1.5-22.5c0-0.5-0.1-1.1-0.1-1.6c-0.2-3.3-0.3-6.6-0.4-9.8
	c0-0.6,0-1.2-0.1-1.9c-0.4-11.5-0.6-23-0.6-34.5c0-0.3,0-0.5,0-0.8c0-3.8,0.1-7.5,0.1-11.3v-0.1c0.2-11.7,0.6-23.4,1.2-34.9l0,0
	c1.9-34.3,5.6-67.4,10.6-98l-138.1,272c0,0,39.7-6.9,78.8-3.7c1.2,0.1,2.4,0.2,3.6,0.3c0.1,0,0.2,0,0.2,0c1.3,0.1,2.5,0.3,3.8,0.4
	c0.3,0,0.6,0.1,0.9,0.1c1.1,0.1,2.2,0.3,3.3,0.4c0.2,0,0.3,0,0.5,0.1c1.2,0.2,2.5,0.4,3.7,0.6c0.3,0,0.6,0.1,0.9,0.1
	c1,0.2,2.1,0.4,3.1,0.6c0.2,0,0.4,0.1,0.7,0.1c1.2,0.2,2.4,0.5,3.6,0.7c0.3,0.1,0.5,0.1,0.8,0.2c1,0.2,2,0.5,3,0.7
	c0.3,0.1,0.5,0.1,0.8,0.2c1.2,0.3,2.3,0.6,3.4,0.9c0.2,0.1,0.5,0.1,0.7,0.2c0.9,0.3,1.9,0.6,2.8,0.9c0.3,0.1,0.5,0.2,0.8,0.3
	c1.1,0.4,2.2,0.7,3.3,1.1c0.2,0.1,0.4,0.2,0.6,0.2c0.9,0.3,1.8,0.7,2.7,1.1c0.3,0.1,0.5,0.2,0.8,0.3c1,0.4,2,0.9,3,1.4
	c0.2,0.1,0.3,0.2,0.5,0.2c0.9,0.4,1.7,0.9,2.5,1.3c0.3,0.1,0.5,0.3,0.8,0.4c0.9,0.5,1.9,1.1,2.8,1.6c0.1,0.1,0.2,0.1,0.3,0.2
	c0.8,0.5,1.6,1.1,2.4,1.6c0.2,0.2,0.5,0.3,0.7,0.5c0.9,0.6,1.7,1.2,2.5,1.9l0,0c-0.7-3.5-1.3-7.1-1.9-10.6
	C295.6,408.8,295.4,407.7,295.3,406.7z M238,398.3c-6.9-0.6-12.9-4.4-16.3-10.5c-3.4-6.1-3.6-13.4-0.4-19.6l61.5-121.1
	c-2.2,58,1.3,114.9,10,165.9C279.6,405.1,261.3,400.1,238,398.3z"/>
<path class="st1" d="M292.8,413c-13.2-7.9-31.5-12.8-54.8-14.7c-6.9-0.6-12.9-4.4-16.3-10.5c-3.4-6.1-3.6-13.4-0.4-19.6l61.5-121.1
	C280.7,305.1,284.1,362,292.8,413z"/>
<path class="st2" d="M447.8,435.4h-133c2.4-9.9,5.8-13.2,5.8-13.2s17.8,0,35.8,0c2.2-7.1,4.8-9.5,4.8-9.5s58.6,0,70.9,0
	C439.6,412.7,444.8,425.3,447.8,435.4z M307.4,420.5L307.4,420.5V133.3l0,0V103c0-2.7-2.2-4.9-4.9-4.9c-2.7,0-4.9,2.2-4.9,4.9v30.3
	v287.2v14.9h9.8V420.5z"/>
<path class="st3" d="M447.8,435.4h-133h-7.4h-9.8H130.9c0,0,1.3,3.7,3.9,9.4c0.2,0.4,0.4,0.8,0.6,1.3c0.6,1.2,1.2,2.4,1.8,3.7l0,0
	c0.5,1.1,1.1,2.2,1.8,3.3l0,0l0,0c0.1,0.1,0.1,0.3,0.2,0.4c0,0.1,0.1,0.2,0.1,0.2c1.1,2.1,2.4,4.3,3.8,6.6l0,0
	c0.7,1.2,1.5,2.4,2.3,3.6c0,0.1,0.1,0.1,0.1,0.2c10.7,16.1,27.1,33,49.1,33c41.9,0,242.1,0,242.1,0l0,0c0,0,0,0,0.1,0
	c0,0,0.1,0,0.1-0.1c0,0,0.1,0,0.1-0.1c0.1,0,0.1-0.1,0.2-0.1c0,0,0.1,0,0.1-0.1c0.1-0.1,0.2-0.1,0.3-0.2c0,0,0.1,0,0.1-0.1
	c0.1-0.1,0.3-0.2,0.4-0.3c0,0,0,0,0.1,0c0.2-0.1,0.4-0.2,0.6-0.4l0,0c4.3-2.8,14.3-11,20.5-28.1l0,0c0.4-1,0.7-2.1,1.1-3.2
	c0-0.1,0.1-0.2,0.1-0.3c0.3-1,0.6-2.1,0.9-3.2c0-0.1,0.1-0.2,0.1-0.3c0.3-1.1,0.6-2.3,0.8-3.5c0-0.1,0-0.1,0-0.2
	c0.3-1.3,0.5-2.6,0.7-3.9l0,0c0.2-1,0.3-2,0.4-3.1c0.6-4.5,0.9-9.3,0.9-14.6h-16.5V435.4z M142.9,453.1c-3.2-5.7-5.5-10.8-7-14.3
	h3.1c3.2,5.4,6.5,10.1,9.7,14.3H142.9z M435.9,493.8H194.6c-17.9,0-32.1-12.4-42.2-25.9h10.9c11.7,9,22.7,11.5,31.3,11.5
	c0.1,0,0.3,0,0.4,0c0.8-0.1,53.3-6.8,115.8-11.5h144.8C449.1,485.2,438.6,492.2,435.9,493.8z M456.8,464.4H149.9
	c-1.7-2.5-3.4-5.1-5-7.8h314C458.3,459.3,457.6,461.9,456.8,464.4z M358,240.8L358,240.8L358,240.8c-1.2,0.3-2.4,0.6-3.6,0.9
	c-0.4,0.1-0.9,0.2-1.3,0.3H353h-0.1c-1.6,0.4-3.2,0.8-4.8,1.2c-0.1,0-0.2,0-0.2,0.1c-0.1,0-0.2,0.1-0.3,0.1c-1.5,0.4-3,0.8-4.5,1.3
	c-0.3,0.1-0.7,0.2-1,0.3c-1.4,0.4-2.7,0.8-4.1,1.2c-0.5,0.2-1,0.3-1.5,0.5c-1.2,0.4-2.4,0.8-3.7,1.2c-0.7,0.2-1.4,0.5-2.2,0.7
	c-1,0.3-2.1,0.7-3.1,1.1c-1,0.3-2,0.7-3,1.1c-0.8,0.3-1.6,0.6-2.3,0.8c-0.7,0.2-1.3,0.5-2,0.8c-1.1,0.4-2.2,0.9-3.4,1.3
	c0,0.2,0,0.3,0,0.5c0.1,2.5,0.2,5.1,0.4,7.6l0,0c0,0.2,0,0.4,0,0.6v0.1c0.1,2.2,0.2,4.4,0.3,6.6c0,0.4,0,0.7,0,1.1
	c0,0.2,0,0.4,0,0.5s0,0.2,0,0.3l0,0c0.1,2.2,0.2,4.4,0.2,6.6c0,0.3,0,0.7,0,1s0,0.6,0,0.9c0.1,2.5,0.2,5.1,0.2,7.6
	c0,0.1,0,0.1,0,0.2c0,0.2,0,0.5,0,0.7l0,0c0.1,2.5,0.1,5.1,0.2,7.6l0,0c0,0.1,0,0.2,0,0.4c0,0.2,0,0.3,0,0.5c0.1,2.5,0.1,5,0.1,7.6
	l0,0c0,0.2,0,0.3,0,0.5c0,0.1,0,0.3,0,0.4c0,2.5,0.1,5,0.1,7.5c0,0.3,0,0.6,0,0.9c0,2.5,0,5,0,7.4c0,0,0,0,0,0.1s0,0.3,0,0.4
	c1.1-0.4,2.3-0.9,3.4-1.3c0.3-0.1,0.7-0.3,1-0.4c0.5-0.2,1-0.3,1.4-0.5c1-0.4,2-0.7,3-1.1c0.6-0.2,1.1-0.4,1.7-0.6
	c0.9-0.3,1.9-0.6,2.8-1c0.6-0.2,1.1-0.4,1.7-0.6c0.9-0.3,1.9-0.6,2.8-0.9c0.6-0.2,1.1-0.3,1.6-0.5c1-0.3,2-0.6,3-0.9
	c0.5-0.1,0.9-0.3,1.4-0.4c0.9-0.3,1.8-0.5,2.7-0.8c0.4-0.1,0.9-0.3,1.3-0.4h0.1c0.1,0,0.1,0,0.2-0.1c0.9-0.2,1.8-0.5,2.7-0.7
	c0.6-0.2,1.2-0.3,1.8-0.5c0.2-0.1,0.4-0.1,0.7-0.2c1.2-0.3,2.5-0.6,3.7-0.9c0.4-0.1,0.7-0.2,1.1-0.3c1.1-0.3,2.2-0.5,3.3-0.8
	c0.4-0.1,0.8-0.2,1.2-0.3c1.1-0.2,2.2-0.5,3.3-0.7c0.3-0.1,0.7-0.1,1-0.2c1.2-0.3,2.4-0.5,3.6-0.7c0.2,0,0.4-0.1,0.6-0.1
	c5.8-1.1,11.4-2.1,16.7-2.9c0,0,0,0,0.1,0s0.3,0,0.4-0.1c1.2-0.2,2.4-0.3,3.5-0.5c15.2-2.1,27.9-2.9,36.2-3.2
	c-0.1-0.4-0.3-0.8-0.4-1.3c0.1,0.4,0.3,0.8,0.4,1.3c-7.1-23.5-16.5-45.6-28.1-66.1l0,0c-3,0.3-6.1,0.7-9.3,1.2
	C379.7,236.3,369.1,238.2,358,240.8z M322,316.3c0-1,0-1.9,0-2.9v-0.9c0-2.5,0-5-0.1-7.5v-0.5V304c0-2.5-0.1-5-0.1-7.6v-0.5v-0.5
	c-0.1-2.5-0.1-5.1-0.2-7.6v-0.4v-0.5c-0.1-2.5-0.1-5.1-0.2-7.6v-0.5v-0.5c-0.1-2.5-0.2-5.1-0.3-7.6v-0.4v-0.4
	c-0.1-2.5-0.2-5.1-0.3-7.6v-0.4v-0.4c-0.1-1.9-0.2-3.7-0.3-5.6c11.3-4.4,23.4-8.1,36.2-11.2c11.5,17.2,21.3,35.9,29.2,55.6
	C362.8,303.7,341.4,309.1,322,316.3z"/>
<path class="st4" d="M144.9,456.6h314c-0.6,2.7-1.3,5.3-2.1,7.8H149.9C148.2,461.9,146.5,459.3,144.9,456.6z M312.5,187.8
	L312.5,187.8c0.1,1,0.2,2.1,0.3,3.2c0,0.1,0,0.3,0,0.4c0.1,1,0.2,2,0.2,3c0,0.1,0,0.2,0,0.3c0.1,1.1,0.2,2.2,0.3,3.4v0.1
	c0.1,1.1,0.2,2.1,0.2,3.2c0,0.2,0,0.3,0,0.5c0.2,2.3,0.3,4.6,0.5,6.9c0,0.1,0,0.3,0,0.4c0.1,1,0.1,2.1,0.2,3.1c0,0.2,0,0.4,0,0.5
	c0.2,2.3,0.3,4.7,0.5,7.1c0,0.2,0,0.5,0,0.7c0.1,1.1,0.1,2.1,0.2,3.2v0.4c0.1,1.2,0.2,2.5,0.2,3.7c0,0.1,0,0.2,0,0.3
	c0.1,1.1,0.1,2.2,0.2,3.3c0,0.3,0,0.5,0,0.8c0.1,2.5,0.3,5,0.4,7.5c0,0.2,0,0.4,0,0.6c0.1,1.1,0.1,2.1,0.2,3.2c0,0.2,0,0.5,0,0.7
	c0.1,2.5,0.3,5,0.4,7.6c0,0.3,0,0.5,0,0.8c0,0.4,0,0.8,0.1,1.3c0-0.2,0-0.3,0-0.5c1.1-0.4,2.2-0.9,3.4-1.3l0,0
	c-1-20.3-2.3-39.5-3.5-55.8c14.1,13.9,26.7,29,37.8,45.1c1.2-0.3,2.4-0.6,3.6-0.9l0,0l0,0c11.1-2.6,21.7-4.5,31.3-5.9
	c3.2-0.5,6.3-0.9,9.3-1.2c-22-38.9-52.3-72.5-91.2-100.4l0,0C307.5,133.3,309.9,155.5,312.5,187.8z M387,303.6
	c1.7,4.4,3.3,8.7,4.9,13.2c6.2,18,4.6,37.1-4.3,53.8c-9,16.8-24.1,28.7-42.5,33.6c-13.9,3.7-25.1,7.6-31.9,10.2
	c5.8-19.4,8.8-51.1,8.8-94.5c-1.1,0.4-2.3,0.9-3.4,1.3c0-0.1,0-0.3,0-0.4c0,0.7,0,1.3,0,2c0,0.2,0,0.5,0,0.7c0,1.3,0,2.5,0,3.7
	c0,0.2,0,0.3,0,0.5c0,1.1,0,2.1,0,3.2c0,0.3,0,0.6,0,0.9c0,1.1,0,2.2-0.1,3.3c0,0.1,0,0.2,0,0.4c0,1.2,0,2.4-0.1,3.6
	c0,0.3,0,0.5,0,0.8c0,1-0.1,1.9-0.1,2.9c0,0.3,0,0.6,0,0.8c-0.1,2.4-0.2,4.7-0.2,7c0,0.3,0,0.6,0,0.9c0,0.9-0.1,1.9-0.1,2.8
	c0,0.2,0,0.5,0,0.7c-0.1,1.1-0.1,2.3-0.2,3.4c0,0.2,0,0.3,0,0.5c-0.1,1-0.1,1.9-0.2,2.9c0,0.3,0,0.6-0.1,0.9c-0.1,1-0.1,1.9-0.2,2.9
	c0,0.1,0,0.3,0,0.4c-0.1,1.1-0.2,2.2-0.2,3.2c0,0.2,0,0.5-0.1,0.7c-0.1,0.9-0.1,1.7-0.2,2.5c0,0.3,0,0.5-0.1,0.8
	c-0.2,2.1-0.4,4.2-0.6,6.2c0,0.3-0.1,0.5-0.1,0.8c-0.1,0.8-0.2,1.6-0.3,2.4c0,0.2,0,0.4-0.1,0.7c-0.1,1-0.2,2-0.4,2.9
	c0,0.2,0,0.3-0.1,0.5c-0.1,0.8-0.2,1.6-0.3,2.4c0,0.3-0.1,0.5-0.1,0.8c-0.1,0.8-0.2,1.6-0.3,2.4c0,0.1,0,0.3-0.1,0.4
	c-0.1,0.9-0.3,1.8-0.4,2.7c0,0.2-0.1,0.4-0.1,0.6c-0.1,0.7-0.2,1.4-0.4,2.1c0,0.2-0.1,0.5-0.1,0.7c-0.3,1.7-0.6,3.4-1,5
	c0,0.2-0.1,0.4-0.1,0.6c-0.1,0.6-0.3,1.3-0.4,1.9c0,0.2-0.1,0.4-0.1,0.5c-0.2,0.8-0.4,1.5-0.6,2.3c0,0.1-0.1,0.2-0.1,0.4
	c-0.2,0.6-0.3,1.3-0.5,1.9c-0.1,0.2-0.1,0.4-0.2,0.6c-0.2,0.6-0.3,1.2-0.5,1.8c0,0.1-0.1,0.2-0.1,0.3c-0.2,0.7-0.4,1.4-0.6,2
	c-0.1,0.2-0.1,0.3-0.2,0.5c-0.2,0.5-0.4,1-0.5,1.5c-0.1,0.2-0.1,0.3-0.2,0.5c-0.2,0.6-0.5,1.2-0.7,1.8l0,0c0,0,0.4-0.2,1.3-0.5h0.1
	c0.1-0.1,0.3-0.1,0.4-0.2c0.1,0,0.1,0,0.2-0.1s0.3-0.1,0.5-0.2c0.1,0,0.1-0.1,0.2-0.1c0.1-0.1,0.3-0.1,0.5-0.2
	c0.1,0,0.2-0.1,0.3-0.1c0.1-0.1,0.3-0.1,0.5-0.2c0.1,0,0.2-0.1,0.4-0.1c0.1-0.1,0.3-0.1,0.5-0.2s0.3-0.1,0.5-0.2
	c0.1,0,0.1-0.1,0.2-0.1c0.8-0.3,1.7-0.7,2.7-1c0.1,0,0.1-0.1,0.2-0.1c0.3-0.1,0.6-0.2,0.9-0.3c0.1,0,0.2-0.1,0.3-0.1
	c0.3-0.1,0.6-0.2,1-0.3c0.1,0,0.2-0.1,0.3-0.1c0.3-0.1,0.7-0.2,1-0.4c0.1,0,0.2-0.1,0.3-0.1c0.4-0.1,0.7-0.3,1.1-0.4
	c0.1,0,0.2-0.1,0.3-0.1c0.4-0.1,0.8-0.3,1.2-0.4c0.1,0,0.2-0.1,0.2-0.1c0.4-0.2,0.9-0.3,1.3-0.5h0.1c4.6-1.6,9.9-3.3,15.9-5l0,0
	c0.7-0.2,1.3-0.4,2-0.6c0,0,0,0,0.1,0c1.4-0.4,2.8-0.8,4.2-1.1l0,0c27-7.2,64.2-13.3,97.5-5.8c-1.7-36.5-7.2-70.5-16.7-101.9
	c-8.3,0.3-21,1.1-36.2,3.2C389.4,303.2,388.2,303.4,387,303.6z M426.7,299.8L426.7,299.8L426.7,299.8L426.7,299.8z M343,244.7
	c-0.3,0.1-0.7,0.2-1,0.3C342.4,244.9,342.7,244.8,343,244.7c1.5-0.4,3-0.8,4.5-1.3c0.1,0,0.2-0.1,0.3-0.1c-0.1,0-0.2,0.1-0.3,0.1
	C346,243.8,344.5,244.3,343,244.7z M336.4,246.7c0.5-0.2,1-0.3,1.5-0.5c1.4-0.4,2.8-0.8,4.1-1.2c-1.4,0.4-2.7,0.8-4.1,1.2
	C337.4,246.4,336.9,246.5,336.4,246.7z M389.4,234.9c-9.6,1.4-20.2,3.3-31.3,5.9l0,0l0,0C369.1,238.2,379.7,236.3,389.4,234.9z
	 M353,242h0.1c0.4-0.1,0.9-0.2,1.3-0.3c-0.4,0.1-0.9,0.2-1.3,0.3C353,242,353,242,353,242z M323,319.6c0.5-0.2,1-0.3,1.4-0.5
	c1-0.4,2-0.7,3-1.1c0.6-0.2,1.1-0.4,1.7-0.6c-0.6,0.2-1.1,0.4-1.7,0.6c-1,0.4-2,0.7-3,1.1C324,319.2,323.5,319.4,323,319.6
	c-0.3,0.1-0.7,0.3-1,0.4c-1.1,0.4-2.3,0.9-3.4,1.3c1.1-0.4,2.3-0.9,3.4-1.3C322.3,319.8,322.7,319.7,323,319.6z M352.2,310.5
	c-0.2,0.1-0.4,0.1-0.7,0.2c-0.6,0.2-1.2,0.3-1.8,0.5c0.6-0.2,1.2-0.3,1.8-0.5C351.7,310.6,352,310.6,352.2,310.5z M346.8,312h-0.1
	c-0.4,0.1-0.9,0.3-1.3,0.4c0.4-0.1,0.9-0.3,1.3-0.4C346.7,312,346.7,312,346.8,312z M426.7,299.8L426.7,299.8
	c-0.1-0.4-0.3-0.8-0.4-1.3C426.5,299,426.6,299.4,426.7,299.8z"/>
<path class="st5" d="M347,311.9c-0.1,0-0.1,0-0.2,0.1C346.9,311.9,346.9,311.9,347,311.9c0.9-0.2,1.8-0.5,2.7-0.7
	C348.8,311.4,347.9,311.7,347,311.9z M333.7,315.9c0.9-0.3,1.9-0.6,2.8-0.9C335.6,315.3,334.7,315.5,333.7,315.9
	c-0.6,0.2-1.1,0.4-1.7,0.6c-0.9,0.3-1.9,0.6-2.8,1c0.9-0.3,1.9-0.6,2.8-1C332.6,316.2,333.2,316,333.7,315.9z M324.5,250.7
	c-0.8,0.3-1.6,0.6-2.3,0.8C322.9,251.3,323.7,251,324.5,250.7c1-0.4,2-0.7,3-1.1c1-0.4,2.1-0.7,3.1-1.1c-1,0.3-2.1,0.7-3.1,1.1
	S325.5,250.3,324.5,250.7z M345.3,312.4c-0.9,0.2-1.8,0.5-2.7,0.8c-0.5,0.1-0.9,0.3-1.4,0.4c0.5-0.1,0.9-0.3,1.4-0.4
	C343.5,312.9,344.4,312.6,345.3,312.4z M357,309.4c1.1-0.3,2.2-0.5,3.3-0.8c0.4-0.1,0.8-0.2,1.2-0.3c1.1-0.2,2.2-0.5,3.3-0.7
	c0.3-0.1,0.7-0.1,1-0.2c-0.3,0.1-0.7,0.1-1,0.2c-1.1,0.2-2.2,0.5-3.3,0.7c-0.4,0.1-0.8,0.2-1.2,0.3
	C359.2,308.8,358.1,309.1,357,309.4c-0.4,0.1-0.7,0.2-1.1,0.3c-1.2,0.3-2.5,0.6-3.7,0.9c1.2-0.3,2.5-0.6,3.7-0.9
	C356.3,309.5,356.6,309.4,357,309.4z M348.1,243.3c-0.1,0-0.2,0-0.2,0.1C347.9,243.3,348,243.3,348.1,243.3c1.6-0.4,3.2-0.8,4.8-1.2
	h0.1h-0.1C351.3,242.4,349.7,242.9,348.1,243.3z M387,303.6c-0.1,0-0.3,0-0.4,0.1c0,0,0,0-0.1,0c0,0,0,0,0.1,0
	C386.7,303.6,386.9,303.6,387,303.6z M386.5,303.6c-5.3,0.8-10.9,1.8-16.7,2.9c-0.2,0-0.4,0.1-0.6,0.1c0.2,0,0.4-0.1,0.6-0.1
	C375.6,305.4,381.2,304.4,386.5,303.6z M322.1,251.6c-0.7,0.2-1.3,0.5-2,0.8l0,0C320.8,252.1,321.5,251.8,322.1,251.6z M324.5,250.7
	c1-0.4,2-0.7,3-1.1c1-0.4,2.1-0.7,3.1-1.1c0.7-0.2,1.4-0.5,2.2-0.7c1.2-0.4,2.4-0.8,3.7-1.2c0.5-0.2,1-0.3,1.5-0.5
	c1.4-0.4,2.8-0.8,4.1-1.2c0.3-0.1,0.7-0.2,1-0.3c1.5-0.4,3-0.8,4.5-1.3c0.1,0,0.2-0.1,0.3-0.1c0.1,0,0.2,0,0.2-0.1
	c1.6-0.4,3.2-0.8,4.8-1.2h0.1h0.1c0.4-0.1,0.9-0.2,1.3-0.3c-11.1-16.2-23.7-31.3-37.8-45.1c1.2,16.3,2.5,35.5,3.5,55.8
	c0.7-0.3,1.3-0.5,2-0.8C322.9,251.3,323.7,251,324.5,250.7z M324.5,319c-0.5,0.2-1,0.3-1.4,0.5c-0.3,0.1-0.7,0.3-1,0.4
	c0,43.4-3,75.1-8.8,94.5c6.8-2.6,17.9-6.5,31.9-10.2c18.4-4.9,33.5-16.8,42.5-33.6c8.9-16.7,10.5-35.9,4.3-53.8
	c-1.5-4.5-3.2-8.9-4.9-13.2c-0.1,0-0.3,0-0.4,0.1c0,0,0,0-0.1,0c-5.3,0.8-10.9,1.8-16.7,2.9c-0.2,0-0.4,0.1-0.6,0.1
	c-1.2,0.2-2.4,0.5-3.6,0.7c-0.3,0.1-0.7,0.1-1,0.2c-1.1,0.2-2.2,0.5-3.3,0.7c-0.4,0.1-0.8,0.2-1.2,0.3c-1.1,0.2-2.2,0.5-3.3,0.8
	c-0.4,0.1-0.7,0.2-1.1,0.3c-1.2,0.3-2.5,0.6-3.7,0.9c-0.2,0.1-0.4,0.1-0.7,0.2c-0.6,0.2-1.2,0.3-1.8,0.5c-0.9,0.2-1.8,0.5-2.7,0.7
	c-0.1,0-0.1,0-0.2,0.1h-0.1c-0.4,0.1-0.9,0.3-1.3,0.4c-0.9,0.2-1.8,0.5-2.7,0.8c-0.5,0.1-0.9,0.3-1.4,0.4c-1,0.3-2,0.6-3,0.9
	c-0.5,0.2-1.1,0.3-1.6,0.5c-0.9,0.3-1.9,0.6-2.8,0.9c-0.6,0.2-1.1,0.4-1.7,0.6c-0.9,0.3-1.9,0.6-2.8,1c-0.6,0.2-1.1,0.4-1.7,0.6
	C326.5,318.3,325.5,318.7,324.5,319z"/>
<path class="st6" d="M310.8,467.8h144.8c-6.5,17.3-17,24.3-19.7,25.9H194.6c-17.9,0-32.1-12.4-42.2-25.9h10.9
	c11.7,9,22.7,11.5,31.3,11.5c0.1,0,0.3,0,0.4,0C195.9,479.2,248.4,472.5,310.8,467.8z M139,438.9h-3.1c1.5,3.4,3.8,8.5,7,14.3h5.8
	C145.5,449,142.2,444.3,139,438.9z M320.3,255.9c0.1,1.9,0.2,3.7,0.3,5.6v0.4v0.4c0.1,2.5,0.2,5.1,0.3,7.6v0.4v0.4
	c0.1,2.5,0.2,5.1,0.3,7.6v0.5v0.5c0.1,2.5,0.2,5.1,0.2,7.6v0.5v0.4c0.1,2.5,0.1,5.1,0.2,7.6v0.5v0.5c0.1,2.5,0.1,5,0.1,7.6v0.5v0.5
	c0,2.5,0.1,5,0.1,7.5v0.9c0,1,0,1.9,0,2.9c19.5-7.2,40.9-12.5,63.8-16c-7.9-19.7-17.8-38.4-29.2-55.6
	C343.7,247.8,331.6,251.6,320.3,255.9z"/>
<g id="HdBVkk.tif">
	<g>
		<g>
			<path class="st7" d="M40,421.5c0-8.3,0-16.6,0-24.9c7.5,3.5,15.1,7,22.6,10.6c9.2,4.5,18.3,9.4,27.7,13.6c3.4,1.5,7.7,2.5,11.3,2
				c3.2-0.4,6.1-3.3,9.1-5.1c-2.1-2.6-4.1-5.4-6.4-7.8c-1-1.1-2.5-1.6-3.7-2.5c-4.7-3.1-9.6-6-14-9.5c-3.4-2.7-7.7-5.9-8.7-9.7
				c-1.1-4.1-2.8-5.4-6.3-6.1c-3.6-0.7-7.1-1.5-10.6-2.3c1-1.5,1.9-2.1,2.7-2c5.3,0.5,9.5-2,13.9-4.6c13.1-7.5,22.4-19.2,33.3-29.2
				c7.6-7.1,14.3-15.1,21.4-22.8c2-2.2,4-3.3,7-1.5c10.3,6.4,16.5,5,23.6-4.7c1.4-1.8,3.5-3.7,5.7-4.3c13-3.4,26.1-6.3,39.2-9.5
				c1.7-0.4,3.9-1.7,4.5-3.2c1.6-3.8,4.5-4.2,8-4.5c4.7-0.4,9.5-1.2,14.1-2.4c4.6-1.2,8.9-3.9,13.5-4.4c7.8-0.9,15.6-2,23.3-3.6
				c7-1.5,10.4-3.2,10.5-10.5c0.2-7.3,3.9-12.2,9.6-15.9c2.7-1.8,6.3-2.1,9.2-3.6c1.5-0.8,3.3-3,3.3-4.5c-0.3-9.3-2.7-11.2-12-10.5
				c-2.1,0.2-4.2,0.8-6.4,1.2c-8.7,1.5-17.3,2.8-26,4.4c-2.7,0.5-5.7,1-7.9,2.5c-5.4,3.5-11,5.6-17.6,6.2c-5.7,0.5-11.3,2.5-16.9,4
				c-5.3,1.4-10.6,3.4-15.4-1.5c-7-7.2-14.1-14.3-21.2-21.4c-3.2-3.3-5.9-8-9.8-9.6c-13.1-5.2-19.9-14.5-21.4-28
				c-0.3-2.6,0.4-5.7,1.6-8c6.4-12.6,16.9-19,30.9-20.5c3.2-0.3,6.2-2.5,9.3-3.9c30.7,0,61.3,0,92,0c-1.4,3.5-2.7,7.1-4.3,10.5
				c-3.5,7.7,0.3,13.7,8.7,14.5c9.3,0.9,18.9,0.5,27.4,5.6c1.4,0.8,3.5,0.9,5.2,0.6c9.5-1.6,14.3-6.7,14.7-16.4
				c0.2-4.9-0.5-9.9-0.8-14.8c74,0,148,0,222,0c0,90,0,180,0,270c-170.5,0-341,0-511.5,0c-1.5,0-3-0.6-4.5-1c4.2,0,8.4,0,12.5,0
				c0.2-0.6,0.3-1.1,0.5-1.7C48.7,427.7,44.3,424.6,40,421.5z M389.2,352.6c-0.2-0.5-0.3-1-0.5-1.6c1.7-0.7,3.5-1.4,5.1-2.3
				c4.2-2.3,8.6-4.4,12.4-7.2c4.5-3.4,1.4-8.3,1.7-12.6c0.3-4-1.9-5.9-5.6-6c-7.7-0.2-15.2-0.1-22.4,3.5c-7.4,3.7-15.2,0.9-18.9-6.3
				c-0.4-0.7-0.8-1.5-1.2-2.2c-1.6-2.6-3.5-3.2-6.2-1.2c-1.6,1.2-3.3,2.6-5.1,3c-3.8,0.8-7.7,0.9-11.6,1.4c0.3-2.8,0.6-5.6,1-8.4
				c2.3-16,4.5-32.1,7.2-48.1c1.2-7.1,1.7-14.9,10.1-18.7c3.6-1.6,3.3-5.5,2.9-9.2c-0.5-5.2-5.9-11.7,3.2-14.9
				c0.1,0,0.2-0.3,0.3-0.4c2.2-5.9,5.2-11.7,6.2-17.8c0.7-4.2,2.3-9.9-2.9-13.1c-3.9-2.4-12-0.4-16.2,3.6c-0.4,0.3-0.7,0.7-1,1.1
				c-6.8,7.5-8.3,17.2-10.6,26.4c-0.8,3.1-1.6,5-5,4.7c-9.4-0.9-15.6,3.9-20,11.4c-2.5,4.3-4.4,9.1-5.7,13.8
				c-0.7,2.3,0.6,5.2,0.8,7.8c0.7,7.7,4,10.8,11.8,11.1c1.8,0.1,3.8-0.2,5.5,0.3c1.1,0.3,2.7,2.1,2.5,2.8
				c-2.1,9.8-4.4,19.6-6.9,29.3c-1,3.9-2.6,7.8-4.6,11.4c-1.5,2.7-3.8,5.3-6.3,7.1c-1.8,1.3-3.8,0.4-3.7-2.6
				c0.2-7.7,0.4-15.5,0.2-23.2c-0.1-6.3-5.1-12.3-10.2-12.2c-11.1,0.2-20.9,4.2-26.5,14.1c-10.3,18-19.8,36.5-29.8,54.6
				c-1,1.7-3.7,3.4-5.7,3.4c-5.6,0.2-11.3-0.7-16.9-0.6c-13.4,0.2-24.6,11-24.5,24.4c0.1,7.4,0.9,15,2.7,22.1
				c1.7,6.6,5.3,13.2,12.6,14.9c7.2,1.7,14.8,1.6,20.3-4.9c4.6-5.4,9-11,13.8-16.4c1.2-1.3,3.2-2.7,4.8-2.7c3.3,0,6.7,0.3,9.8,1.4
				c11.5,3.9,22.3,2.6,32.5-3.7c3.5-2.1,5.9-2.5,8.8,1.4c5.1,6.9,19.4,5.9,23.9-1.4c2.6-4.2,5-8.6,7.4-13c2-3.6,3.7-3.7,6.2-0.5
				c0.6,0.8,1.1,1.7,1.6,2.5c3.9,7,12.2,8.5,17.7,2.6c3.3-3.6,5.7-8,8.4-12.2c1.7-2.6,3.6-3.5,6.1-1.3c11.5,10.2,24,7.3,36,1.8
				c14.5-6.6,28.5-14.3,42.5-21.9c14.3-7.9,30.2-8.4,45.7-11c0.5-0.1,1,0,1.5,0.1c12.1,2.9,24.2,5.7,36.2,9c2,0.5,4.4,2.8,5,4.8
				c1.5,4.2,3.8,4.1,6.9,2.5c3.8-1.9,5.3-4.8,5.3-9.2c0-5.3-0.3-10-5.5-12.9c-13.4-7.4-28.2-9.7-43.1-10.8
				c-6.3-0.4-12.8,1.4-19.2,2.5c-8.5,1.5-17.3,2.2-25.3,5c-19.8,7.2-39.3,15.4-58.9,23.1C393.9,352,391.5,352.1,389.2,352.6z
				 M419.4,430.6c0.1,0.3,0.2,0.7,0.3,1c28.1,0,56.3,0,85.9,0c-1.9-3-2.7-5.5-4.5-6.8c-10-7.9-20.5-14.7-34.4-11.4
				c-1.9,0.4-4,0.3-6,0.2c-8.6-0.6-15.2,3.4-21.8,8.4c-3.9,3-8.5,5.1-13,7.2C424,430.1,421.6,430.1,419.4,430.6z"/>
			<path d="M191,163.5c-3.1,1.3-6.1,3.5-9.3,3.9c-14,1.5-24.5,7.9-30.9,20.5c-1.2,2.4-1.9,5.4-1.6,8c1.5,13.5,8.3,22.8,21.4,28
				c3.9,1.6,6.6,6.3,9.8,9.6c7.1,7.1,14.2,14.3,21.2,21.4c4.8,4.9,10.1,2.8,15.4,1.5c5.6-1.4,11.2-3.4,16.9-4
				c6.5-0.6,12.1-2.7,17.6-6.2c2.2-1.5,5.2-2,7.9-2.5c8.6-1.6,17.3-2.9,26-4.4c2.1-0.4,4.2-1,6.4-1.2c9.3-0.7,11.7,1.3,12,10.5
				c0.1,1.5-1.8,3.7-3.3,4.5c-2.9,1.6-6.5,1.9-9.2,3.6c-5.7,3.6-9.4,8.5-9.6,15.9c-0.2,7.3-3.6,9-10.5,10.5
				c-7.8,1.6-15.5,2.7-23.3,3.6c-4.6,0.5-8.9,3.2-13.5,4.4c-4.6,1.2-9.3,2-14.1,2.4c-3.6,0.3-6.4,0.7-8,4.5
				c-0.6,1.5-2.8,2.8-4.5,3.2c-13,3.3-26.2,6.2-39.2,9.5c-2.1,0.6-4.3,2.4-5.7,4.3c-7.2,9.7-13.4,11.1-23.6,4.7
				c-2.9-1.8-4.9-0.7-7,1.5c-7.1,7.7-13.8,15.8-21.4,22.8c-10.8,10-20.2,21.7-33.3,29.2c-4.4,2.5-8.5,5.1-13.9,4.6
				c-0.8-0.1-1.7,0.5-2.7,2c3.5,0.8,7.1,1.6,10.6,2.3c3.5,0.7,5.2,2,6.3,6.1c1,3.8,5.3,6.9,8.7,9.7c4.4,3.5,9.3,6.4,14,9.5
				c1.2,0.8,2.8,1.4,3.7,2.5c2.3,2.5,4.3,5.2,6.4,7.8c-3,1.8-5.9,4.6-9.1,5.1c-3.6,0.5-7.9-0.5-11.3-2c-9.4-4.2-18.4-9.1-27.7-13.6
				c-7.5-3.6-15-7.1-22.6-10.6c0-8.3,0-16.6,0-24.9c2.6,1,3.9,0,3.9-2.6c0-1.6-0.4-3.3-0.7-4.9c-1.3-9.2-1.2-18,7.2-24.3
				c5.8-4.4,11.5-9,17.5-13c4.9-3.3,10.4-0.6,11.3,5.2c0.7,4.7,3.1,3.9,5.9,2.1c18.9-12.1,32.2-28.9,41.1-49.3
				c0.6-1.5,1-4.4,0.4-4.8c-1.5-0.9-3.7-1-5.6-0.8c-1.6,0.1-3.2,1-4.6,1.8c-7.3,3.9-14.7,7.8-21.9,11.8c-5.5,3.1-11.3,2.4-16.9,0.8
				c-1.8-0.5-3.9-2.6-4.3-4.3c-1.4-5.9-4.4-11.7-2.1-18.1c1.1-3.3-0.2-4.5-3.7-5.2c-7.3-1.4-14.4-3.5-21.6-5.3
				c-1.9-0.5-3.9-0.9-5.8-1.4c0-31.8,0-63.6,0-95.6C90.3,163.5,140.7,163.5,191,163.5z M95.7,271.5c1.4-2.4,1.8-3.5,2.5-4.2
				c4.1-4.3,8.2-8.7,12.4-12.9c10-9.9,20.1-19.7,30.1-29.6c1.4-1.4,3.1-2.6,4.3-4.1c0.6-0.8,1.2-2.3,0.9-3c-0.4-0.7-2-1.4-2.9-1.2
				c-2.1,0.5-4.2,1.2-5.9,2.3c-3.3,2.2-6.5,4.7-9.5,7.2c-16.8,13.7-32.5,28.4-44.9,46.3c-1.8,2.6-2.9,6.1-3.2,9.2
				c-0.5,5,2.5,7.2,7.2,5.7c4.4-1.5,8.6-3.6,12.8-5.5c8.4-3.8,16.7-8,25.3-11.4c2.1-0.8,7,0,7.4,1.1c1.4,4.2,3,9.3,1.9,13.3
				c-5.3,18.1-15.8,33.1-29.9,45.4c-5.6,4.9-11.7,9.3-17.7,13.7c-5,3.6-10.1,7-15.5,10c-1.6,0.9-4.6,1.1-6,0.2
				c-1-0.7-0.7-3.7-0.6-5.7c0.1-2.1,0.7-4.2,1.1-6.4c-0.6-0.4-1.1-0.7-1.7-1.1c-3.1,2.7-6.5,5.3-9.4,8.3c-4.5,4.6-4.8,11.8-1.1,16.3
				c3.7,4.5,11.1,6.1,16.3,2.8c5.3-3.3,10.6-6.8,15.2-11c7.3-6.5,14-13.7,21-20.5c15.7-15.2,28.6-32,35.1-53.3
				c1.9-6.2,0.4-11.1-3.5-15.6c-4.2-4.9-9.7-6.4-15.8-4.4c-6.3,2-12.5,4.6-18.8,6.7C101,270.8,99,270.9,95.7,271.5z M210.8,279.8
				c-0.6,0-1.2,0.1-1.8,0.1c0-3.2-0.2-6.4,0.1-9.5c0.4-3.9-1.3-4.9-4.7-3.9c-5.6,1.6-11.2,3.2-16.6,5.3c-1.6,0.6-2.9,2.8-3.9,4.5
				c-2.6,4.7-4.7,9.7-7.3,14.4c-0.6,1-2.4,1.3-3.7,1.9c-0.6-1.4-1.6-2.9-1.6-4.3c0.1-2.5,1.1-4.9,1.2-7.3c0-1.2-1.3-2.4-2.1-3.6
				c-0.9,0.9-2.1,1.6-2.8,2.7c-3.1,5-5.9,10.1-9.1,15c-0.6,0.9-2.5,0.9-3.9,1.3c-0.3-1.3-0.8-2.7-0.7-4c0.2-1.9,1.2-3.9,1.2-5.8
				c-0.1-1.9-1.1-3.8-1.8-5.7c-1.7,1-4.2,1.6-5.1,3c-4.6,8.1-8.2,16.7-7.6,26.3c0.4,5.5,6.2,8.3,10.6,5c2.8-2.1,5.5-4.5,7.4-7.3
				c2.1-3.1,4.5-3.8,7.9-4c2.6-0.2,5.6-1.2,7.4-2.9c2.6-2.4,4.6-4.2,8.1-1.7c0.8,0.5,2.4-0.1,3.6-0.3c1.9-0.4,3.7-1.3,5.6-1.3
				c3.6,0.1,4.5-1.7,4.9-4.8c0.6-4.4,1.4-8.8,2.6-13c0.4-1.4,1.9-2.5,2.9-3.8c0.5,2,1.5,4.1,1.4,6.1c-0.2,2-1.7,3.9-2.4,5.9
				c-0.9,2.7-1.1,5.6,2.4,6.5c3.4,0.9,4.5-1.5,5.3-4.4c0.5-1.6,1.9-3.4,3.4-4c5.3-2.1,7.7-7.7,5-13.7
				C214.5,275,212.7,277.4,210.8,279.8z M262.7,260.6c-0.3-0.4-0.5-0.8-0.8-1.2c-2,0.5-4,1.2-6,1.4c-2.3,0.2-4.6-0.2-7-0.2
				c-0.6,0-1.2,0.5-1.7,0.9c-3,2.7-4.2,11-2,15.6c2,4.4,6.2,2.9,9.7,3.1c4.2,0.2,6.3-2.4,7.9-5.7c1.5-3.1,3.4-4.3,5.8-0.9
				c2,2.7,3.9,1.4,5.3-0.3c1.1-1.3,1.8-3.3,1.9-5c0.5-11.1,7.1-16.9,16.9-20.3c1.1-0.4,2.1-1.2,3.6-2.1c-4.1-3.1-7-1.5-10.1,0.2
				c-2.5,1.3-5.4,1.7-8,2.7c-1.6,0.6-3.6,1.3-4.3,2.5c-2.5,4.3-4.2,9-6.7,13.3c-2.7,4.7-6.7,7.9-12.4,8c-1.4,0-2.9-1.1-4.3-1.7
				c0.8-1.3,1.3-3,2.4-3.8c2.1-1.5,4.7-2.5,7-3.9C260.9,262.8,261.7,261.6,262.7,260.6z M222.2,282.1c0.7,1.8,1.3,3.2,1.9,4.7
				c1.3-1.3,3-2.4,3.7-4c0.9-1.9,1.1-4.2,1.2-6.3c0.1-6.2,1.1-11.2,8.8-12.1c1.2-0.1,2.1-3.5,3.1-5.3c-1.6-0.3-3.3-1.1-4.9-0.9
				c-3.4,0.5-6.8,1.2-10.1,2.2c-2.4,0.7-4.7,1.7-6.8,3c-0.8,0.5-1,2.2-1.4,3.4c1.2,0.2,2.3,0.4,3.5,0.5c1.7,0,3.3-0.1,5-0.2
				c-0.1,1.7,0,3.6-0.5,5.2C224.8,275.5,223.5,278.7,222.2,282.1z M231.4,279c2.1,1.9,3.7,3.3,5.3,4.8c1.1-1.7,2.5-3.3,3.2-5.1
				c0.8-2.3,1-4.8,1.3-7.2c0.1-1.1-0.3-2.3-0.5-3.5c-1.2,0.3-3,0.2-3.5,0.9C235.2,271.8,233.7,275,231.4,279z M149.1,262.9
				c-3.7,9.3,1,9.2,8.2,9.8c1.2,0.1,2.4-1.2,3.6-1.8c-0.6-1.1-1-2.6-1.9-3.2C155.9,266,152.4,264.5,149.1,262.9z M250.2,255.9
				c3.7-0.3,7.4-0.4,11-0.9c1.2-0.2,2.4-1.1,3.6-1.7c-0.5-0.9-0.8-2.2-1.6-2.7C259.3,248.2,251.1,252.3,250.2,255.9z"/>
			<path class="st7" d="M40,259.1c1.9,0.5,3.9,0.9,5.8,1.4c7.2,1.8,14.3,3.9,21.6,5.3c3.5,0.7,4.9,1.9,3.7,5.2
				c-2.3,6.4,0.7,12.2,2.1,18.1c0.4,1.7,2.5,3.8,4.3,4.3c5.6,1.7,11.4,2.3,16.9-0.8c7.3-4,14.6-8,21.9-11.8c1.5-0.8,3-1.6,4.6-1.8
				c1.9-0.2,4.1-0.1,5.6,0.8c0.6,0.4,0.3,3.3-0.4,4.8c-8.9,20.4-22.2,37.2-41.1,49.3c-2.8,1.8-5.2,2.6-5.9-2.1
				c-0.9-5.8-6.4-8.4-11.3-5.2c-6,4.1-11.7,8.6-17.5,13c-8.4,6.3-8.4,15.2-7.2,24.3c0.2,1.6,0.7,3.3,0.7,4.9c0,2.6-1.3,3.7-3.9,2.6
				C40,334.2,40,296.7,40,259.1z"/>
			<path d="M334,163.5c0.3,4.9,1,9.9,0.8,14.8c-0.4,9.7-5.2,14.9-14.7,16.4c-1.7,0.3-3.9,0.2-5.2-0.6c-8.5-5.1-18.1-4.7-27.4-5.6
				c-8.4-0.8-12.2-6.8-8.7-14.5c1.6-3.4,2.9-7,4.3-10.5C300,163.5,317,163.5,334,163.5z"/>
			<path d="M40,421.5c4.3,3.1,8.7,6.2,13,9.3c-0.2,0.6-0.3,1.1-0.5,1.7c-4.2,0-8.4,0-12.5,0C40,428.9,40,425.2,40,421.5z"/>
			<path d="M389.2,352.6c2.3-0.5,4.7-0.6,6.8-1.5c19.6-7.7,39.1-16,58.9-23.1c8-2.9,16.8-3.6,25.3-5c6.4-1.1,12.9-2.9,19.2-2.5
				c14.9,1,29.7,3.3,43.1,10.8c5.2,2.9,5.5,7.6,5.5,12.9c0,4.4-1.5,7.4-5.3,9.2c-3.1,1.5-5.5,1.6-6.9-2.5c-0.7-2-3-4.2-5-4.8
				c-12-3.3-24.1-6.1-36.2-9c-0.5-0.1-1-0.2-1.5-0.1c-15.5,2.5-31.4,3.1-45.7,11c-14,7.7-28,15.3-42.5,21.9
				c-11.9,5.4-24.5,8.4-36-1.8c-2.5-2.2-4.4-1.3-6.1,1.3c-2.7,4.2-5.1,8.6-8.4,12.2c-5.5,5.9-13.8,4.4-17.7-2.6
				c-0.5-0.9-1-1.8-1.6-2.5c-2.5-3.3-4.2-3.1-6.2,0.5c-2.5,4.3-4.8,8.7-7.4,13c-4.5,7.3-18.7,8.3-23.9,1.4c-2.9-3.9-5.3-3.5-8.8-1.4
				c-10.2,6.3-21,7.7-32.5,3.7c-3.1-1.1-6.5-1.5-9.8-1.4c-1.6,0-3.6,1.4-4.8,2.7c-4.7,5.3-9.1,11-13.8,16.4
				c-5.5,6.5-13.1,6.6-20.3,4.9c-7.3-1.7-11-8.3-12.6-14.9c-1.8-7.2-2.7-14.7-2.7-22.1c-0.1-13.4,11-24.3,24.5-24.4
				c5.6-0.1,11.3,0.9,16.9,0.6c2-0.1,4.7-1.7,5.7-3.4c10.1-18.1,19.5-36.6,29.8-54.6c5.6-9.9,15.4-13.8,26.5-14.1
				c5.1-0.1,10.1,5.9,10.2,12.2c0.2,7.7-0.1,15.5-0.2,23.2c-0.1,3,1.9,3.9,3.7,2.6c2.5-1.8,4.8-4.4,6.3-7.1c2-3.5,3.5-7.4,4.6-11.4
				c2.6-9.7,4.8-19.5,6.9-29.3c0.2-0.8-1.4-2.5-2.5-2.8c-1.7-0.5-3.6-0.2-5.5-0.3c-7.8-0.2-11.1-3.4-11.8-11.1
				c-0.2-2.6-1.5-5.5-0.8-7.8c1.3-4.8,3.2-9.5,5.7-13.8c4.3-7.5,10.6-12.3,20-11.4c3.4,0.3,4.2-1.6,5-4.7
				c2.3-9.3,3.7-18.9,10.6-26.4c0.3-0.4,0.7-0.8,1-1.1c4.2-4,12.3-6,16.2-3.6c5.2,3.2,3.7,8.9,2.9,13.1c-1,6.1-4,11.9-6.2,17.8
				c-0.1,0.2-0.1,0.4-0.3,0.4c-9.1,3.2-3.7,9.7-3.2,14.9c0.3,3.7,0.7,7.6-2.9,9.2c-8.4,3.8-8.9,11.5-10.1,18.7
				c-2.7,16-4.9,32.1-7.2,48.1c-0.4,2.8-0.7,5.6-1,8.4c3.9-0.4,7.8-0.6,11.6-1.4c1.8-0.4,3.6-1.8,5.1-3c2.6-2.1,4.5-1.5,6.2,1.2
				c0.4,0.7,0.8,1.5,1.2,2.2c3.7,7.2,11.4,10,18.9,6.3c7.2-3.6,14.8-3.7,22.4-3.5c3.7,0.1,5.9,2,5.6,6c-0.3,4.3,2.8,9.2-1.7,12.6
				c-3.8,2.8-8.2,4.9-12.4,7.2c-1.6,0.9-3.4,1.5-5.1,2.3C388.9,351.6,389,352.1,389.2,352.6z M203.4,391.8c-0.7,0.4-1.4,0.7-2.1,1.1
				c2.8,5.1,5.1,10.4,8.6,15c2.2,3,5.8,2,8.2-0.9c6.1-7.2,12.3-14.2,18.2-21.6c2.7-3.4,5.4-4.8,9.4-2.6c1.5,0.8,3,1.5,4.5,2.1
				c16.6,6.4,26.8,4.9,41.1-7.9c1.5-1.4,2.4-3.5,3.5-5.3c-0.4-0.3-0.7-0.6-1.1-0.9c-1.3,0.5-2.7,0.9-4,1.5c-5.6,2.6-11,5.5-17.4,5
				c-7.2-0.6-14.6-0.8-21.7-2.2c-4.6-0.9-5.2-3.7-2.8-7.9c1-1.7,1.9-3.5,2.7-5.3c3.8-8.6,7.5-17.3,11.4-25.8
				c1.3-2.8,3.7-5.3,4.6-8.2c3.3-10.5,9.9-18.7,18-25.7c1.9-1.6,5.3-1.5,8-2.2c0.2,2.7,0.7,5.4,0.4,8c-0.2,2.4-1.2,4.8-1.9,7.1
				c0.4,0.2,0.9,0.5,1.3,0.7c0.9-0.5,2-0.9,2.7-1.6c3.5-4,4.6-16.4,1.2-20.4c-1.2-1.4-5-2.4-6.2-1.6c-4.8,3.3-10.4,6.6-13.4,11.4
				c-8.8,14.1-16.6,29-24.8,43.5c-2.7,4.9-5.8,9.6-8.1,14.7c-2.3,5.3-4.8,6.5-9.9,3.6c-5.6-3.3-11.7-4.6-18.2-3.8
				c-4.4,0.6-7.3,3-9.7,7.9c2.4-0.5,3.7-0.6,4.9-1.1c5.4-2.4,10-0.6,14.5,2.5c1.9,1.3,3.7,2.8,5.7,4c2.9,1.8,3.5,4.1,1.5,6.7
				c-4.4,5.5-8.7,11.1-13.6,16.2c-3.5,3.6-9.6,2.5-12.7-1.7C205.2,394.8,204.3,393.2,203.4,391.8z M266.4,371.2
				c10.9-0.4,19.8-4.4,26.8-12.1c1.4-1.5,2.2-3.7,3.2-5.5c-2-0.5-3.9-1.4-5.8-1.4c-6.1,0.2-9.8-3.1-9.5-9.1c0.1-1.9,0.9-3.8,1.1-5.8
				c0.1-1.2,0-3.2-0.6-3.5c-1.1-0.5-2.9-0.3-4,0.3c-1.2,0.7-2.3,1.9-3.1,3.2c-5.3,9.3-10.5,18.6-15.8,27.9c-1.8,3.2-0.1,4.6,2.7,5.3
				C263.2,371,265,371,266.4,371.2z M338.2,254.4c0.3,0.1,0.7,0.2,1,0.3c0.8-1.6,1.9-3.1,2.3-4.7c1-4.1,2.5-7.2,6.9-9
				c3.1-1.2,3.6-4.4,1.5-7.1c-1.4-1.7-3.6-2.7-5.5-4.2c-1.5,1.9-2.4,3.5-3.7,4.8c-2.7,2.9-5.3,5.4-8.9,0.7c-0.8-1.1-3.8-1.5-5.3-1
				c-6.5,2.3-14,16.1-12.9,23c0.8,5.1,4.4,7.4,9.3,6.2c4.2-1.1,9.3-8.6,8.9-14c-2.5,2.1-4.7,4.2-7.1,5.8c-2.8,1.9-5.3,0.9-5.4-1.9
				c-0.3-6.8,3.9-10,10.6-9.8c6.2,0.2,8.7,2.3,7.9,8.4C337.7,252.7,338,253.5,338.2,254.4z M332.3,357c-0.6-0.5-1.1-1-1.7-1.5
				c-1.9,1.7-3.8,3.6-5.8,5.2c-2.5,1.9-5,4.1-7.9,5c-2.4,0.8-4.3-1.4-3.2-4c2.7-6.2,3.9-13.8,12.5-15.4c0.9-0.2,1.6-1.4,2.3-2.1
				c-1-0.7-2-1.9-3-1.9c-5.2-0.2-9.9,0.9-12.6,6.2c-2.5,4.9-5.5,9.4-7.8,14.4c-1.1,2.4-0.9,5.3-1.4,8.6c5.5-0.9,10.2-3.8,12.5,2.3
				c1.1,2.9-2.5,6.7-6.4,7.8c-5,1.4-5.1-2.4-5.6-5.8c-4.1,4.5-4.9,9.3-2.2,11.5c3,2.4,9.2,1,12-2.7c0.6-0.8,1-1.7,1.6-2.5
				c4.6-6.8,9.3-13.6,13.9-20.5C330.6,360,331.4,358.4,332.3,357z M434.1,345.4c-0.1-0.3-0.2-0.5-0.3-0.8c-0.8,0.1-1.6,0.1-2.3,0.4
				c-13.2,5.1-26.3,10.2-39.4,15.4c-5.4,2.2-10.3,1.4-14.5-2.7c-1.1-1.1-2.5-1.9-3.8-3c-3,5.6-2,7.6,2.6,10.3
				c8.2,4.9,16,0.8,22.9-1.9C411.4,358.5,422.6,351.5,434.1,345.4z M539.3,341.4c0.2-0.5,0.5-0.9,0.7-1.4c-1.4-1.2-2.7-2.8-4.4-3.6
				c-3.8-1.7-7.7-3.3-11.7-4.3c-8.2-2-16.5-3.7-24.8-5c-2.9-0.5-6.1,0.3-9.1,0.6c0.1,0.4,0.1,0.8,0.2,1.1
				C506.6,333,522.9,337.2,539.3,341.4z M368.4,336.1c-4.6,1.4-4.5,5-4.5,7.9c0,1,2.9,2.1,4.5,3.1c1.1,0.7,2.5,1,3.4,1.9
				c2.2,2.3,3.6,1.5,5.8-0.4c2.5-2.1,5.7-3.4,8.7-4.9c1.2-0.6,2.5-0.9,3.7-1.4c-2.2-0.9-4.4-0.3-5.9-1c-2.9-1.4-4.5-0.3-6.6,1.4
				c-4.4,3.5-7.6,1.9-8.3-3.8C369,338.1,368.7,337.3,368.4,336.1z M219.1,375.6c-5.6,0-9.4,3.1-9.1,6.4c0.2,2.9,1.1,5.7,4.9,5.7
				c3.1,0,9.6-6.1,8.6-8.4C222.6,377.4,219.9,376.2,219.1,375.6z M342.1,361c-0.7,3.2-1.6,6.3-2.1,9.5c-0.5,2.9,0.3,5.5,3.7,6
				c3.5,0.5,5-1.6,5.8-4.6C345.2,369.3,345.2,369.3,342.1,361z M400.8,332.5c-0.1-0.5-0.2-1.1-0.3-1.6c-5.7-2.7-12.6-1-15.1,4.1
				C390.8,334.2,395.8,333.4,400.8,332.5z M350.7,342.6c-0.7-0.4-1.3-0.9-2-1.3c-2.1,1.7-4.3,3.3-6.1,5.3c-0.7,0.8-0.4,2.5-0.6,3.8
				c1.5,0.1,3.8,0.9,4.3,0.3C348.1,348.2,349.3,345.3,350.7,342.6z M484.7,331c-0.1-0.6-0.2-1.2-0.2-1.8c-6.8,0.9-13.6,1.8-20.4,2.8
				c0.1,0.5,0.1,1,0.2,1.5C471.1,332.6,477.9,331.8,484.7,331z M339,259.8c-0.8-0.2-1.7-0.3-2.5-0.5c-0.1,3.9-3.7,7.4-1.2,11.6
				c0.6,0.1,1.2,0.1,1.8,0.2C337.8,267.4,338.4,263.6,339,259.8z M353.3,201.3c0.6,0.9,1.2,1.8,1.8,2.7c1.8-1.3,3.7-2.6,5.4-4
				c0.1,0-1.3-2.1-1.4-2C357.1,199,355.2,200.2,353.3,201.3z"/>
			<path d="M419.4,430.6c2.2-0.5,4.6-0.5,6.6-1.5c4.5-2.1,9.1-4.2,13-7.2c6.5-5,13.2-8.9,21.8-8.4c2,0.1,4.1,0.3,6-0.2
				c13.8-3.3,24.3,3.5,34.4,11.4c1.7,1.4,2.6,3.8,4.5,6.8c-29.6,0-57.7,0-85.9,0C419.6,431.3,419.5,430.9,419.4,430.6z"/>
			<path class="st7" d="M95.7,271.5c3.3-0.6,5.3-0.7,7.1-1.3c6.3-2.2,12.4-4.7,18.8-6.7c6.1-2,11.6-0.5,15.8,4.4
				c3.9,4.5,5.4,9.4,3.5,15.6c-6.5,21.2-19.5,38.1-35.1,53.3c-7,6.8-13.7,14-21,20.5c-4.6,4.2-9.9,7.7-15.2,11
				c-5.2,3.2-12.6,1.7-16.3-2.8c-3.7-4.5-3.4-11.6,1.1-16.3c2.9-3,6.2-5.5,9.4-8.3c0.6,0.4,1.1,0.7,1.7,1.1c-0.4,2.1-1,4.2-1.1,6.4
				c-0.1,2-0.4,5,0.6,5.7c1.4,0.9,4.4,0.7,6-0.2c5.3-3,10.5-6.4,15.5-10c6.1-4.4,12.1-8.8,17.7-13.7c14.2-12.3,24.7-27.4,29.9-45.4
				c1.2-4-0.4-9.1-1.9-13.3c-0.4-1.1-5.3-1.9-7.4-1.1c-8.6,3.4-16.9,7.6-25.3,11.4c-4.2,1.9-8.4,4.1-12.8,5.5
				c-4.7,1.6-7.7-0.7-7.2-5.7c0.3-3.2,1.4-6.6,3.2-9.2c12.4-17.9,28.2-32.6,44.9-46.3c3.1-2.5,6.2-5,9.5-7.2
				c1.7-1.2,3.9-1.8,5.9-2.3c0.9-0.2,2.5,0.4,2.9,1.2c0.4,0.7-0.2,2.2-0.9,3c-1.3,1.5-2.9,2.7-4.3,4.1
				c-10.1,9.8-20.1,19.7-30.1,29.6c-4.2,4.2-8.3,8.5-12.4,12.9C97.5,268,97.1,269.1,95.7,271.5z"/>
			<path class="st7" d="M210.8,279.8c1.9-2.4,3.7-4.8,5.8-7.4c2.7,6.1,0.3,11.6-5,13.7c-1.5,0.6-2.9,2.4-3.4,4
				c-0.9,2.9-1.9,5.3-5.3,4.4c-3.4-0.9-3.3-3.8-2.4-6.5c0.7-2,2.2-3.9,2.4-5.9c0.2-2-0.9-4-1.4-6.1c-1,1.3-2.5,2.4-2.9,3.8
				c-1.1,4.3-2,8.6-2.6,13c-0.4,3.1-1.4,4.9-4.9,4.8c-1.8,0-3.7,0.9-5.6,1.3c-1.2,0.2-2.9,0.9-3.6,0.3c-3.5-2.5-5.5-0.7-8.1,1.7
				c-1.9,1.7-4.8,2.8-7.4,2.9c-3.4,0.2-5.8,1-7.9,4c-1.9,2.8-4.6,5.2-7.4,7.3c-4.4,3.3-10.2,0.5-10.6-5c-0.6-9.6,3-18.2,7.6-26.3
				c0.8-1.5,3.3-2.1,5.1-3c0.6,1.9,1.7,3.8,1.8,5.7c0.1,1.9-1,3.8-1.2,5.8c-0.1,1.3,0.5,2.6,0.7,4c1.3-0.4,3.3-0.4,3.9-1.3
				c3.2-4.9,6-10.1,9.1-15c0.7-1.1,1.8-1.8,2.8-2.7c0.7,1.2,2.1,2.4,2.1,3.6c0,2.4-1.1,4.9-1.2,7.3c0,1.4,1,2.8,1.6,4.3
				c1.3-0.6,3.2-0.9,3.7-1.9c2.6-4.7,4.8-9.6,7.3-14.4c0.9-1.7,2.2-3.9,3.9-4.5c5.4-2.1,11-3.6,16.6-5.3c3.4-1,5,0,4.7,3.9
				c-0.3,3.1-0.1,6.3-0.1,9.5C209.6,279.9,210.2,279.8,210.8,279.8z"/>
			<path class="st7" d="M262.7,260.6c-1,1-1.8,2.1-2.9,2.8c-2.3,1.4-4.8,2.3-7,3.9c-1.1,0.8-1.6,2.5-2.4,3.8
				c1.4,0.6,2.9,1.8,4.3,1.7c5.7-0.1,9.7-3.4,12.4-8c2.5-4.3,4.2-9,6.7-13.3c0.7-1.3,2.8-1.9,4.3-2.5c2.6-1,5.6-1.4,8-2.7
				c3.2-1.7,6-3.3,10.1-0.2c-1.5,0.9-2.5,1.7-3.6,2.1c-9.7,3.4-16.4,9.2-16.9,20.3c-0.1,1.7-0.8,3.6-1.9,5c-1.4,1.7-3.3,3-5.3,0.3
				c-2.5-3.4-4.3-2.2-5.8,0.9c-1.6,3.3-3.7,5.9-7.9,5.7c-3.5-0.2-7.6,1.4-9.7-3.1c-2.1-4.7-1-12.9,2-15.6c0.5-0.4,1.1-0.9,1.7-0.9
				c2.3,0,4.7,0.4,7,0.2c2-0.2,4-0.9,6-1.4C262.2,259.9,262.5,260.3,262.7,260.6z"/>
			<path class="st7" d="M222.2,282.1c1.3-3.5,2.6-6.6,3.6-9.8c0.5-1.6,0.3-3.5,0.5-5.2c-1.7,0.1-3.3,0.2-5,0.2
				c-1.2,0-2.3-0.3-3.5-0.5c0.4-1.2,0.6-2.8,1.4-3.4c2.1-1.3,4.4-2.3,6.8-3c3.3-1,6.7-1.8,10.1-2.2c1.6-0.2,3.2,0.6,4.9,0.9
				c-1,1.9-1.9,5.2-3.1,5.3c-7.7,0.8-8.8,5.9-8.8,12.1c0,2.1-0.3,4.4-1.2,6.3c-0.7,1.6-2.5,2.7-3.7,4
				C223.5,285.3,222.9,283.9,222.2,282.1z"/>
			<path class="st7" d="M231.4,279c2.3-4.1,3.8-7.3,5.8-10.2c0.5-0.7,2.3-0.6,3.5-0.9c0.2,1.2,0.6,2.4,0.5,3.5
				c-0.2,2.4-0.5,4.9-1.3,7.2c-0.6,1.8-2.1,3.4-3.2,5.1C235.1,282.4,233.5,280.9,231.4,279z"/>
			<path class="st7" d="M149.1,262.9c3.3,1.6,6.8,3,10,4.8c0.9,0.5,1.3,2.1,1.9,3.2c-1.2,0.7-2.5,1.9-3.6,1.8
				C150.1,272.1,145.4,272.2,149.1,262.9z"/>
			<path class="st7" d="M250.2,255.9c0.9-3.6,9-7.7,12.9-5.3c0.8,0.5,1.1,1.8,1.6,2.7c-1.2,0.6-2.3,1.5-3.6,1.7
				C257.6,255.5,254,255.6,250.2,255.9z"/>
			<path class="st7" d="M203.4,391.8c0.9,1.5,1.8,3,2.8,4.4c3.1,4.1,9.2,5.2,12.7,1.7c4.9-5.1,9.3-10.6,13.6-16.2
				c2-2.5,1.3-4.9-1.5-6.7c-2-1.2-3.8-2.7-5.7-4c-4.4-3-9.1-4.9-14.5-2.5c-1.1,0.5-2.5,0.6-4.9,1.1c2.4-4.9,5.3-7.3,9.7-7.9
				c6.5-0.9,12.5,0.5,18.2,3.8c5.1,2.9,7.5,1.7,9.9-3.6c2.2-5.1,5.3-9.8,8.1-14.7c8.2-14.6,15.9-29.4,24.8-43.5
				c3-4.8,8.5-8.1,13.4-11.4c1.2-0.8,5.1,0.2,6.2,1.6c3.3,4,2.3,16.4-1.2,20.4c-0.7,0.7-1.8,1.1-2.7,1.6c-0.4-0.2-0.9-0.5-1.3-0.7
				c0.7-2.4,1.7-4.7,1.9-7.1c0.2-2.6-0.2-5.3-0.4-8c-2.7,0.7-6.1,0.6-8,2.2c-8.1,7-14.6,15.3-18,25.7c-0.9,2.9-3.3,5.4-4.6,8.2
				c-3.9,8.6-7.6,17.2-11.4,25.8c-0.8,1.8-1.8,3.6-2.7,5.3c-2.4,4.2-1.8,7,2.8,7.9c7.1,1.3,14.4,1.6,21.7,2.2
				c6.4,0.5,11.9-2.4,17.4-5c1.3-0.6,2.7-1,4-1.5c0.4,0.3,0.7,0.6,1.1,0.9c-1.2,1.8-2,3.9-3.5,5.3c-14.3,12.7-24.5,14.2-41.1,7.9
				c-1.6-0.6-3.1-1.3-4.5-2.1c-4-2.2-6.7-0.8-9.4,2.6c-5.9,7.4-12.1,14.5-18.2,21.6c-2.4,2.8-5.9,3.9-8.2,0.9
				c-3.4-4.6-5.8-10-8.6-15C202,392.5,202.7,392.1,203.4,391.8z"/>
			<path class="st7" d="M266.4,371.2c-1.4-0.1-3.2-0.2-5-0.6c-2.8-0.7-4.5-2.1-2.7-5.3c5.3-9.3,10.5-18.7,15.8-27.9
				c0.7-1.3,1.8-2.5,3.1-3.2c1.1-0.6,2.9-0.8,4-0.3c0.6,0.2,0.7,2.3,0.6,3.5c-0.2,2-1,3.9-1.1,5.8c-0.3,6,3.4,9.4,9.5,9.1
				c1.9-0.1,3.9,0.9,5.8,1.4c-1.1,1.9-1.8,4-3.2,5.5C286.2,366.8,277.3,370.7,266.4,371.2z"/>
			<path class="st7" d="M338.2,254.4c-0.1-0.8-0.4-1.6-0.3-2.4c0.8-6-1.7-8.2-7.9-8.4c-6.7-0.2-10.9,3-10.6,9.8
				c0.1,2.8,2.6,3.9,5.4,1.9c2.4-1.7,4.5-3.7,7.1-5.8c0.4,5.4-4.7,12.9-8.9,14c-5,1.3-8.5-1.1-9.3-6.2c-1.1-6.9,6.4-20.7,12.9-23
				c1.5-0.5,4.5-0.1,5.3,1c3.6,4.7,6.2,2.2,8.9-0.7c1.2-1.3,2.2-2.9,3.7-4.8c2,1.5,4.2,2.5,5.5,4.2c2.2,2.6,1.6,5.8-1.5,7.1
				c-4.4,1.7-5.9,4.9-6.9,9c-0.4,1.7-1.5,3.2-2.3,4.7C338.9,254.6,338.5,254.5,338.2,254.4z"/>
			<path class="st7" d="M332.3,357c-0.9,1.5-1.7,3-2.7,4.4c-4.6,6.8-9.3,13.7-13.9,20.5c-0.6,0.8-1,1.7-1.6,2.5c-2.8,3.7-9,5-12,2.7
				c-2.8-2.2-2-6.9,2.2-11.5c0.5,3.4,0.6,7.2,5.6,5.8c3.9-1.1,7.4-4.9,6.4-7.8c-2.2-6-7-3.1-12.5-2.3c0.5-3.3,0.3-6.2,1.4-8.6
				c2.3-4.9,5.3-9.5,7.8-14.4c2.7-5.3,7.4-6.3,12.6-6.2c1,0,2,1.2,3,1.9c-0.8,0.7-1.5,1.9-2.3,2.1c-8.6,1.6-9.8,9.1-12.5,15.4
				c-1.1,2.6,0.8,4.7,3.2,4c2.9-0.9,5.4-3.1,7.9-5c2.1-1.6,3.9-3.4,5.8-5.2C331.2,355.9,331.7,356.4,332.3,357z"/>
			<path class="st7" d="M434.1,345.4c-11.6,6.1-22.8,13-34.9,17.8c-6.8,2.7-14.6,6.9-22.9,1.9c-4.6-2.7-5.6-4.7-2.6-10.3
				c1.3,1,2.7,1.9,3.8,3c4.2,4.1,9.2,4.8,14.5,2.7c13.1-5.2,26.3-10.3,39.4-15.4c0.7-0.3,1.5-0.3,2.3-0.4
				C433.9,344.9,434,345.2,434.1,345.4z"/>
			<path class="st7" d="M539.3,341.4c-16.4-4.2-32.7-8.3-49.1-12.5c-0.1-0.4-0.1-0.8-0.2-1.1c3.1-0.2,6.2-1,9.1-0.6
				c8.3,1.4,16.6,3.1,24.8,5c4,1,7.9,2.6,11.7,4.3c1.7,0.7,2.9,2.3,4.4,3.6C539.8,340.5,539.5,340.9,539.3,341.4z"/>
			<path class="st7" d="M368.4,336.1c0.3,1.3,0.7,2,0.7,2.8c0.7,5.7,3.9,7.3,8.3,3.8c2.1-1.7,3.8-2.8,6.6-1.4c1.5,0.7,3.7,0.1,5.9,1
				c-1.2,0.5-2.6,0.8-3.7,1.4c-3,1.5-6.2,2.8-8.7,4.9c-2.2,1.8-3.6,2.7-5.8,0.4c-0.9-0.9-2.3-1.2-3.4-1.9c-1.6-1-4.5-2.1-4.5-3.1
				C363.9,341.1,363.8,337.5,368.4,336.1z"/>
			<path class="st7" d="M219.1,375.6c0.8,0.7,3.5,1.8,4.4,3.7c1,2.3-5.5,8.3-8.6,8.4c-3.8,0.1-4.6-2.8-4.9-5.7
				C209.7,378.6,213.5,375.6,219.1,375.6z"/>
			<path class="st7" d="M342.1,361c3.1,8.3,3.1,8.3,7.4,10.9c-0.8,3-2.3,5.1-5.8,4.6c-3.3-0.5-4.1-3.1-3.7-6
				C340.5,367.3,341.4,364.2,342.1,361z"/>
			<path class="st7" d="M400.8,332.5c-5,0.8-10,1.7-15.4,2.5c2.4-5.1,9.4-6.8,15.1-4.1C400.6,331.5,400.7,332,400.8,332.5z"/>
			<path class="st7" d="M350.7,342.6c-1.4,2.7-2.6,5.6-4.4,8.1c-0.4,0.6-2.8-0.1-4.3-0.3c0.2-1.3-0.1-3,0.6-3.8
				c1.8-2,4.1-3.6,6.1-5.3C349.4,341.7,350.1,342.1,350.7,342.6z"/>
			<path class="st7" d="M484.7,331c-6.8,0.8-13.6,1.6-20.4,2.4c-0.1-0.5-0.1-1-0.2-1.5c6.8-0.9,13.6-1.8,20.4-2.8
				C484.6,329.8,484.7,330.4,484.7,331z"/>
			<path class="st7" d="M339,259.8c-0.6,3.8-1.2,7.5-1.9,11.3c-0.6-0.1-1.2-0.1-1.8-0.2c-2.6-4.1,1.1-7.7,1.2-11.6
				C337.4,259.5,338.2,259.7,339,259.8z"/>
			<path class="st7" d="M353.3,201.3c1.9-1.1,3.9-2.3,5.9-3.3c0.1-0.1,1.4,2,1.4,2c-1.7,1.4-3.6,2.7-5.4,4
				C354.5,203.2,353.9,202.3,353.3,201.3z"/>
		</g>
	</g>
</g>
</svg>
