<svg id="Layer_1" data-name="Layer 1" xmlns="http://www.w3.org/2000/svg" viewBox="0 0 1889.57 671.06"><defs><style>.cls-1{fill:#275931;}</style></defs><g id="Layer_2" data-name="Layer 2"><path class="cls-1" d="M1888.29,836.8a125.48,125.48,0,0,0-7.17-23.65q-5.8-15.4-12.82-30.33a83.35,83.35,0,0,0-7.07-12,29.31,29.31,0,0,0-8.64-6.68,125.89,125.89,0,0,1-12.62-7.1c.79-2,1.56-4.11,2.36-6.15,1.87-5.3,2.57-10.95,3.84-16.42.73-3.94.72-8,1.06-12,1-8.42.1-16.84-.48-25.26-.54-6.77-2.27-13.36-3.67-20a131.6,131.6,0,0,0-8.76-23.35c-2.83-5.11-6.12-10-9.43-14.78a80.65,80.65,0,0,0-9.91-11.51c-2-5.74-4.25-11.37-6.63-16.93a106.49,106.49,0,0,0-8-13.83,103.67,103.67,0,0,0-8.79-12.3,159.86,159.86,0,0,0-36.61-31.09c-9.13-5.89-19.47-9.25-29.44-13.39a70.92,70.92,0,0,1-7.17-3.64c-2.41-2.62-5.06-4.88-8.32-6-1.36-1.11-2.73-2.21-4.12-3.26-10.73-7.06-23.67-9.58-36-12.66-14.66-3.34-30.19-4.8-44.67.08-2.47.7-5.16,1.21-7.16,2.94l-2.95,2.49c-12.3-10.92-23.85-23.28-38.79-30.58a114.7,114.7,0,0,0-55.49-11.11c-16.17,1.52-32.26,7.4-44.16,18.71a53.84,53.84,0,0,0-16.26,26.16q-2.23.9-4.52,1.7c-8.52,1.77-17.28,3.19-26,1.92-7.86-1.17-15.76-2.19-23.69-2.8a13.14,13.14,0,0,0-4.56.59c-5.7-7-11.17-14.21-17.74-20.44-3.77-3.78-7.94-7.13-12-10.58a39.07,39.07,0,0,0-9.74-6.22,70.76,70.76,0,0,0-24.8-4.54c-6.83-.14-13.67-.71-20.5-.55-8.69.38-17.31,1.7-26,2.22-25.24,2.05-52-.27-75.39,11.16a55.07,55.07,0,0,0-9.54,6.86c-5.13,2.27-10,5.56-12.78,10.55a23,23,0,0,0-3.24,6.93,73.48,73.48,0,0,0-5.25,8.82c-.28.71-.57,1.42-.86,2.13-1.52.77-3,1.58-4.46,2.5-6.59,4.12-13,9-17.9,15-.91,1.16-1.62,2.47-2.49,3.65-.29,0-.58-.06-.87-.1a113.87,113.87,0,0,0-20-5.12c-9-2-3.69-.44-14.5-4.1A84.46,84.46,0,0,1,1103,532.07c-.58-.56-1.14-1.13-1.69-1.72a31.46,31.46,0,0,0,.18-4.35c-.15-4.53-.28-9.09-1.66-13.46-1.3-6.19-5.1-11.49-8.9-16.41-.38-.5-.74-1-1.1-1.52-.67-1.12-1.31-2.26-1.89-3.43s-1.08-2.25-1.58-3.4c-.12-.38-.24-.77-.35-1.16a60.35,60.35,0,0,0-4-13.27,121.54,121.54,0,0,0-26-35.18c-12-11.48-28.32-16.08-42.92-23.15a28.53,28.53,0,0,1-3.65-2.52c-3.14-2.72-6.27-5.46-9.51-8.07-15.65-12.44-35-19-54.27-23.59-10.42-2.45-21-4.34-31.77-4.52a123.47,123.47,0,0,0-23.34,2c-18.95,3.18-38.41,7.15-54.59,18.07-9,6.14-17.78,12.85-25.26,20.84a77.61,77.61,0,0,0-14.09,25.07c-4.44,11.95-5.09,25-5,37.67.21,9.62,1.7,19.12,2.87,28.66-.19,1-.34,1.95-.46,2.94-1.77.77-.76,0-8.1,2.1-7.86,2.11-4.28,1.27-9.22,2.23a31,31,0,0,1-12-.31l-.1,0c-11-3.4-20.49-10.28-30.22-16.26a91.38,91.38,0,0,0-27.07-11.76,92.83,92.83,0,0,0-43.56.46c-11.56,2.78-22.72,7.7-31.42,15.95a119.42,119.42,0,0,0-23.8,27.46A101.22,101.22,0,0,0,594,563c-1.93-3.85-3.92-7.66-6.06-11.39-3.29-5.58-6.87-11-10.41-16.4-2.26-3.53-4.48-7.07-6.58-10.69-2.51-4.45-4.88-9.09-8.28-12.94a59.21,59.21,0,0,0-9-7.55,67.37,67.37,0,0,0-5-20.52,35.54,35.54,0,0,0-4.39-9.35c-.75-3.74-1.61-7.45-2.46-11.16-1.42-4.92-3.5-9.62-5.31-14.4-1.62-3.93-4.42-7.26-6.6-10.89-2.05-2.62-5-4.42-7.41-6.67a12,12,0,0,0-4.42-2.07c-1.46-.38-2.91-.82-4.38-1.23-1.77-3-3.76-5.82-5.6-8.75a10.91,10.91,0,0,0-1.76-2c-3.33-2.48-6.07-6.17-10.27-7.17-4.49-1.27-8.1-2.56-12.62-2.24a22.35,22.35,0,0,0-5,1.14,30.32,30.32,0,0,0-6,1.92,24.66,24.66,0,0,0-4.44,3.46c-1.68,1.53-3.72,2.78-5,4.7a104.91,104.91,0,0,0-6,9.47c-1.75,3.65-3,7.67-4.56,11.57-3.15,9.86-3.94,19.77-4.36,30a171.34,171.34,0,0,0,1.62,17.84c-.28,1-.54,2.06-.78,3.1-1.52,6.83-3.14,13.66-3.19,20.69a64.45,64.45,0,0,0,.59,9.7,116.26,116.26,0,0,1-9.85-13.19c-10.08-15.51-8.55-12.09-15.65-24.35q-5.67-10.35-10.63-21.08c-2-4.29-3.71-8.77-6-12.93-1.14-1.91-2.35-3.79-3.67-5.58a44.56,44.56,0,0,0-3.78-3.35,11,11,0,0,0-5.36-1.55c-2.12-.17-3.52,1-4.94,2.3-3.9,2.86-5.46,8.11-6.34,12.69a32.47,32.47,0,0,0-1,9.41c-.47.54-.92,1.08-1.36,1.65a61.13,61.13,0,0,0-9.61,17.75,54.2,54.2,0,0,0-2.19,9c-.07.27-.13.54-.21.81s-.37.41-.56.61a29.36,29.36,0,0,1-6.94,3.44h0a42,42,0,0,1-15.25.12c-1.08-.16-2.15-.41-3.22-.64-1.74-.52-3.46-1.09-5.15-1.76a85.19,85.19,0,0,0,1.87-16.24c-.23-10.74-2.33-21.9-8.76-30.75-4.42-6.31-11.1-10.59-16.76-15.7-7.31-5.84-14.12-12.49-22.3-17.12-10.82-5.49-22.59-8.95-34.27-12.12a208,208,0,0,0-26.62-4.33,156.7,156.7,0,0,0-26.26-6.67,61,61,0,0,0-11.73-25.78c-5.08-5.09-10.6-10-17.11-13.22-5.27-2.59-11.05-3.86-16.71-5.3a70.85,70.85,0,0,0-13.66-.74l-.89,0a34.69,34.69,0,0,0,2.45-8.47,34,34,0,0,0,.86-3.95l.48-.23A46.71,46.71,0,0,0,150,330a6.23,6.23,0,0,0,1.78-2.66,21.91,21.91,0,0,0,3.09-6.1c2.76-6.16,3.06-13,3.49-19.69-.31-7.95-1.13-16-4.77-23.24-.55-.85-1.1-1.69-1.64-2.54-1-2.65-3.49-4-5.53-5.82a9.54,9.54,0,0,0-2.85-.93c-1.85-.55-3.8-1.09-5.7-.47a39.91,39.91,0,0,0-9,3c-5.55,3.07-10.28,7.35-15.19,11.31L107,288.38a16.74,16.74,0,0,0-11.6-5.92,87.92,87.92,0,0,1-19.53-8.91c-.64-.41-1.27-.82-1.89-1.24-.23-.28-.46-.56-.7-.83-2.16-2.86-5.16-4.88-7.82-7.24l-3.32-.89c-7.31-3.41-15.27,3.57-18.47,9.84-5.84,7.4-7,17-9,26a99.4,99.4,0,0,0,0,26.58l2.52,11.94a49,49,0,0,0,9,17.94A50.28,50.28,0,0,0,51,360.89c3.89,3.26,7.65,6.71,12,9.31a73.85,73.85,0,0,0,9.52,5,53.94,53.94,0,0,0-3.8,7c-2.2,1.72-4.33,3.54-6.4,5.43a47.73,47.73,0,0,0-6.64,9c-.06-.09-.11-.19-.18-.28-5.32-8.27-7.8-18.69-15.86-24.9-6.58-6.4-16.45-7.82-25.2-6.2-4.83.82-9.6,1.94-14.35,3.13v520.2a38.89,38.89,0,0,0,4.78,2.63c6.75,3.09,14,5,21.23,6.64,14.5,2.74,29.39,2.58,44.07,1.87,11.25-.4,22.51-.6,33.76-.4,20.7.29,40.78,5.93,61.18,8.83,18.25,2.82,36.63,4.63,54.89,7.35,21.69,3.35,43.36,6.85,65.08,10,25.56,3.7,51.2,7.12,77.05,7.75,34.2,1,68.4-1.75,102.21-6.8A374.1,374.1,0,0,0,508,917.6c11.77-3.05,23.57-6.25,34.78-11a195.59,195.59,0,0,0,23.48-11.75c4.56,1,9.15,1.94,13.71,2.71,41.35,6.55,83.2,2,124.76.7a873.1,873.1,0,0,1,108.12,3.94c22.47,2,44.85,4.84,67.31,6.91,22.66,1.81,45.37,3.51,68.11,3.71,33.45,0,66.85-1.79,100.27-3,39.72-1.31,79.46-2.17,119.18-3.32,42.41-1,84.81-2.26,127.22-3.45,50.6-1.25,101.31-1.92,151.81,2.07,29.18,2.06,58.16,6,87.13,9.92,40.71,5.28,81.5,10.27,122.53,12.08,28.31,1.21,56.65,1.42,85,2,26.29.7,52.84-.24,78.47-6.59,21.14-4.84,34.52-10.92,50.49-25.47a22.34,22.34,0,0,0,3-2.82C1888.25,879.38,1892.07,857,1888.29,836.8Z" transform="translate(-0.08 -262.45)"/></g></svg>